<svg width="420" height="330" viewBox="0 0 420 330" fill="none" xmlns="http://www.w3.org/2000/svg">
<rect width="2" height="307" transform="matrix(-1 0 0 1 11 11)" fill="#B8FFF0"/>
<rect width="2" height="307" transform="matrix(-1 0 0 1 410 13)" fill="#B8FFF0"/>
<rect x="9" y="318" width="401" height="2" fill="#B8FFF0"/>
<rect x="41" y="265" width="336" height="2" fill="#B8FFF0"/>
<rect x="41" y="239" width="336" height="2" fill="#B8FFF0"/>
<rect x="42" y="213" width="336" height="2" fill="#B8FFF0"/>
<rect x="41" y="187" width="336" height="2" fill="#B8FFF0"/>
<rect x="41" y="161" width="336" height="2" fill="#B8FFF0"/>
<rect x="41" y="135" width="336" height="2" fill="#B8FFF0"/>
<rect x="41" y="109" width="336" height="2" fill="#B8FFF0"/>
<rect x="41" y="83" width="336" height="2" fill="#B8FFF0"/>
<rect x="42" y="57" width="335" height="2" fill="#B8FFF0"/>
<rect x="41" y="31" width="336" height="2" fill="#B8FFF0"/>
<rect x="41" y="31" width="2" height="236" fill="#B8FFF0"/>
<rect x="376" y="31" width="2" height="236" fill="#B8FFF0"/>
<path d="M55.7109 279V277.953L58.4883 275.23C58.7539 274.962 58.9753 274.724 59.1523 274.516C59.3294 274.307 59.4622 274.105 59.5508 273.91C59.6393 273.715 59.6836 273.507 59.6836 273.285C59.6836 273.033 59.6263 272.816 59.5117 272.637C59.3971 272.454 59.2396 272.314 59.0391 272.215C58.8385 272.116 58.6107 272.066 58.3555 272.066C58.0924 272.066 57.862 272.121 57.6641 272.23C57.4661 272.337 57.3125 272.49 57.2031 272.688C57.0964 272.885 57.043 273.121 57.043 273.395H55.6641C55.6641 272.887 55.7799 272.445 56.0117 272.07C56.2435 271.695 56.5625 271.405 56.9688 271.199C57.3776 270.993 57.8464 270.891 58.375 270.891C58.9115 270.891 59.3828 270.991 59.7891 271.191C60.1953 271.392 60.5104 271.667 60.7344 272.016C60.9609 272.365 61.0742 272.763 61.0742 273.211C61.0742 273.51 61.0169 273.805 60.9023 274.094C60.7878 274.383 60.5859 274.703 60.2969 275.055C60.0104 275.406 59.6081 275.832 59.0898 276.332L57.7109 277.734V277.789H61.1953V279H55.7109ZM65.5 279.152C64.8568 279.152 64.3047 278.99 63.8438 278.664C63.3854 278.336 63.0326 277.863 62.7852 277.246C62.5404 276.626 62.418 275.88 62.418 275.008C62.4206 274.135 62.5443 273.393 62.7891 272.781C63.0365 272.167 63.3893 271.698 63.8477 271.375C64.3086 271.052 64.8594 270.891 65.5 270.891C66.1406 270.891 66.6914 271.052 67.1523 271.375C67.6133 271.698 67.9661 272.167 68.2109 272.781C68.4583 273.396 68.582 274.138 68.582 275.008C68.582 275.883 68.4583 276.63 68.2109 277.25C67.9661 277.867 67.6133 278.339 67.1523 278.664C66.694 278.99 66.1432 279.152 65.5 279.152ZM65.5 277.93C66 277.93 66.3945 277.684 66.6836 277.191C66.9753 276.697 67.1211 275.969 67.1211 275.008C67.1211 274.372 67.0547 273.839 66.9219 273.406C66.7891 272.974 66.6016 272.648 66.3594 272.43C66.1172 272.208 65.8307 272.098 65.5 272.098C65.0026 272.098 64.6094 272.345 64.3203 272.84C64.0313 273.332 63.8854 274.055 63.8828 275.008C63.8802 275.646 63.944 276.182 64.0742 276.617C64.207 277.052 64.3945 277.38 64.6367 277.602C64.8789 277.82 65.1667 277.93 65.5 277.93ZM69.8799 279V277.953L72.6572 275.23C72.9229 274.962 73.1442 274.724 73.3213 274.516C73.4984 274.307 73.6312 274.105 73.7197 273.91C73.8083 273.715 73.8525 273.507 73.8525 273.285C73.8525 273.033 73.7952 272.816 73.6807 272.637C73.5661 272.454 73.4085 272.314 73.208 272.215C73.0075 272.116 72.7796 272.066 72.5244 272.066C72.2614 272.066 72.0309 272.121 71.833 272.23C71.6351 272.337 71.4814 272.49 71.3721 272.688C71.2653 272.885 71.2119 273.121 71.2119 273.395H69.833C69.833 272.887 69.9489 272.445 70.1807 272.07C70.4124 271.695 70.7314 271.405 71.1377 271.199C71.5465 270.993 72.0153 270.891 72.5439 270.891C73.0804 270.891 73.5518 270.991 73.958 271.191C74.3643 271.392 74.6794 271.667 74.9033 272.016C75.1299 272.365 75.2432 272.763 75.2432 273.211C75.2432 273.51 75.1859 273.805 75.0713 274.094C74.9567 274.383 74.7549 274.703 74.4658 275.055C74.1794 275.406 73.777 275.832 73.2588 276.332L71.8799 277.734V277.789H75.3643V279H69.8799ZM76.3955 277.516V276.363L79.79 271H80.751V272.641H80.165L77.8799 276.262V276.324H82.6182V277.516H76.3955ZM80.2119 279V277.164L80.2275 276.648V271H81.5947V279H80.2119Z" fill="#06A987"/>
<path d="M96.7109 279V277.953L99.4883 275.23C99.7539 274.962 99.9753 274.724 100.152 274.516C100.329 274.307 100.462 274.105 100.551 273.91C100.639 273.715 100.684 273.507 100.684 273.285C100.684 273.033 100.626 272.816 100.512 272.637C100.397 272.454 100.24 272.314 100.039 272.215C99.8385 272.116 99.6107 272.066 99.3555 272.066C99.0924 272.066 98.862 272.121 98.6641 272.23C98.4661 272.337 98.3125 272.49 98.2031 272.688C98.0964 272.885 98.043 273.121 98.043 273.395H96.6641C96.6641 272.887 96.7799 272.445 97.0117 272.07C97.2435 271.695 97.5625 271.405 97.9688 271.199C98.3776 270.993 98.8464 270.891 99.375 270.891C99.9115 270.891 100.383 270.991 100.789 271.191C101.195 271.392 101.51 271.667 101.734 272.016C101.961 272.365 102.074 272.763 102.074 273.211C102.074 273.51 102.017 273.805 101.902 274.094C101.788 274.383 101.586 274.703 101.297 275.055C101.01 275.406 100.608 275.832 100.09 276.332L98.7109 277.734V277.789H102.195V279H96.7109ZM106.5 279.152C105.857 279.152 105.305 278.99 104.844 278.664C104.385 278.336 104.033 277.863 103.785 277.246C103.54 276.626 103.418 275.88 103.418 275.008C103.421 274.135 103.544 273.393 103.789 272.781C104.036 272.167 104.389 271.698 104.848 271.375C105.309 271.052 105.859 270.891 106.5 270.891C107.141 270.891 107.691 271.052 108.152 271.375C108.613 271.698 108.966 272.167 109.211 272.781C109.458 273.396 109.582 274.138 109.582 275.008C109.582 275.883 109.458 276.63 109.211 277.25C108.966 277.867 108.613 278.339 108.152 278.664C107.694 278.99 107.143 279.152 106.5 279.152ZM106.5 277.93C107 277.93 107.395 277.684 107.684 277.191C107.975 276.697 108.121 275.969 108.121 275.008C108.121 274.372 108.055 273.839 107.922 273.406C107.789 272.974 107.602 272.648 107.359 272.43C107.117 272.208 106.831 272.098 106.5 272.098C106.003 272.098 105.609 272.345 105.32 272.84C105.031 273.332 104.885 274.055 104.883 275.008C104.88 275.646 104.944 276.182 105.074 276.617C105.207 277.052 105.395 277.38 105.637 277.602C105.879 277.82 106.167 277.93 106.5 277.93ZM110.88 279V277.953L113.657 275.23C113.923 274.962 114.144 274.724 114.321 274.516C114.498 274.307 114.631 274.105 114.72 273.91C114.808 273.715 114.853 273.507 114.853 273.285C114.853 273.033 114.795 272.816 114.681 272.637C114.566 272.454 114.409 272.314 114.208 272.215C114.007 272.116 113.78 272.066 113.524 272.066C113.261 272.066 113.031 272.121 112.833 272.23C112.635 272.337 112.481 272.49 112.372 272.688C112.265 272.885 112.212 273.121 112.212 273.395H110.833C110.833 272.887 110.949 272.445 111.181 272.07C111.412 271.695 111.731 271.405 112.138 271.199C112.547 270.993 113.015 270.891 113.544 270.891C114.08 270.891 114.552 270.991 114.958 271.191C115.364 271.392 115.679 271.667 115.903 272.016C116.13 272.365 116.243 272.763 116.243 273.211C116.243 273.51 116.186 273.805 116.071 274.094C115.957 274.383 115.755 274.703 115.466 275.055C115.179 275.406 114.777 275.832 114.259 276.332L112.88 277.734V277.789H116.364V279H110.88ZM120.493 279.109C119.972 279.109 119.506 279.012 119.095 278.816C118.683 278.618 118.356 278.348 118.114 278.004C117.875 277.66 117.747 277.267 117.731 276.824H119.138C119.164 277.152 119.306 277.421 119.563 277.629C119.821 277.835 120.131 277.937 120.493 277.937C120.777 277.937 121.03 277.872 121.251 277.742C121.472 277.612 121.647 277.431 121.774 277.199C121.902 276.967 121.965 276.703 121.962 276.406C121.965 276.104 121.901 275.836 121.771 275.602C121.64 275.367 121.462 275.184 121.235 275.051C121.009 274.915 120.748 274.848 120.454 274.848C120.215 274.845 119.979 274.889 119.747 274.98C119.515 275.072 119.332 275.191 119.196 275.34L117.888 275.125L118.306 271H122.946V272.211H119.505L119.274 274.332H119.321C119.47 274.158 119.679 274.013 119.95 273.898C120.221 273.781 120.518 273.723 120.841 273.723C121.325 273.723 121.757 273.837 122.138 274.066C122.518 274.293 122.817 274.605 123.036 275.004C123.255 275.402 123.364 275.858 123.364 276.371C123.364 276.9 123.242 277.371 122.997 277.785C122.755 278.197 122.418 278.521 121.985 278.758C121.556 278.992 121.058 279.109 120.493 279.109Z" fill="#06A987"/>
<path d="M136.711 279V277.953L139.488 275.23C139.754 274.962 139.975 274.724 140.152 274.516C140.329 274.307 140.462 274.105 140.551 273.91C140.639 273.715 140.684 273.507 140.684 273.285C140.684 273.033 140.626 272.816 140.512 272.637C140.397 272.454 140.24 272.314 140.039 272.215C139.839 272.116 139.611 272.066 139.355 272.066C139.092 272.066 138.862 272.121 138.664 272.23C138.466 272.337 138.313 272.49 138.203 272.688C138.096 272.885 138.043 273.121 138.043 273.395H136.664C136.664 272.887 136.78 272.445 137.012 272.07C137.243 271.695 137.563 271.405 137.969 271.199C138.378 270.993 138.846 270.891 139.375 270.891C139.911 270.891 140.383 270.991 140.789 271.191C141.195 271.392 141.51 271.667 141.734 272.016C141.961 272.365 142.074 272.763 142.074 273.211C142.074 273.51 142.017 273.805 141.902 274.094C141.788 274.383 141.586 274.703 141.297 275.055C141.01 275.406 140.608 275.832 140.09 276.332L138.711 277.734V277.789H142.195V279H136.711ZM146.5 279.152C145.857 279.152 145.305 278.99 144.844 278.664C144.385 278.336 144.033 277.863 143.785 277.246C143.54 276.626 143.418 275.88 143.418 275.008C143.421 274.135 143.544 273.393 143.789 272.781C144.036 272.167 144.389 271.698 144.848 271.375C145.309 271.052 145.859 270.891 146.5 270.891C147.141 270.891 147.691 271.052 148.152 271.375C148.613 271.698 148.966 272.167 149.211 272.781C149.458 273.396 149.582 274.138 149.582 275.008C149.582 275.883 149.458 276.63 149.211 277.25C148.966 277.867 148.613 278.339 148.152 278.664C147.694 278.99 147.143 279.152 146.5 279.152ZM146.5 277.93C147 277.93 147.395 277.684 147.684 277.191C147.975 276.697 148.121 275.969 148.121 275.008C148.121 274.372 148.055 273.839 147.922 273.406C147.789 272.974 147.602 272.648 147.359 272.43C147.117 272.208 146.831 272.098 146.5 272.098C146.003 272.098 145.609 272.345 145.32 272.84C145.031 273.332 144.885 274.055 144.883 275.008C144.88 275.646 144.944 276.182 145.074 276.617C145.207 277.052 145.395 277.38 145.637 277.602C145.879 277.82 146.167 277.93 146.5 277.93ZM150.88 279V277.953L153.657 275.23C153.923 274.962 154.144 274.724 154.321 274.516C154.498 274.307 154.631 274.105 154.72 273.91C154.808 273.715 154.853 273.507 154.853 273.285C154.853 273.033 154.795 272.816 154.681 272.637C154.566 272.454 154.409 272.314 154.208 272.215C154.007 272.116 153.78 272.066 153.524 272.066C153.261 272.066 153.031 272.121 152.833 272.23C152.635 272.337 152.481 272.49 152.372 272.688C152.265 272.885 152.212 273.121 152.212 273.395H150.833C150.833 272.887 150.949 272.445 151.181 272.07C151.412 271.695 151.731 271.405 152.138 271.199C152.547 270.993 153.015 270.891 153.544 270.891C154.08 270.891 154.552 270.991 154.958 271.191C155.364 271.392 155.679 271.667 155.903 272.016C156.13 272.365 156.243 272.763 156.243 273.211C156.243 273.51 156.186 273.805 156.071 274.094C155.957 274.383 155.755 274.703 155.466 275.055C155.179 275.406 154.777 275.832 154.259 276.332L152.88 277.734V277.789H156.364V279H150.88ZM160.642 279.109C160.259 279.107 159.885 279.04 159.521 278.91C159.156 278.777 158.828 278.562 158.536 278.266C158.244 277.966 158.013 277.569 157.841 277.074C157.669 276.577 157.584 275.961 157.587 275.227C157.587 274.542 157.66 273.931 157.806 273.395C157.951 272.858 158.161 272.405 158.435 272.035C158.708 271.663 159.037 271.379 159.423 271.184C159.811 270.988 160.244 270.891 160.724 270.891C161.226 270.891 161.672 270.99 162.06 271.187C162.45 271.385 162.765 271.656 163.005 272C163.244 272.341 163.393 272.727 163.45 273.156H162.024C161.951 272.849 161.802 272.604 161.575 272.422C161.351 272.237 161.067 272.145 160.724 272.145C160.169 272.145 159.742 272.385 159.442 272.867C159.146 273.349 158.996 274.01 158.993 274.852H159.048C159.175 274.622 159.341 274.426 159.544 274.262C159.747 274.098 159.976 273.971 160.231 273.883C160.489 273.792 160.761 273.746 161.048 273.746C161.517 273.746 161.937 273.858 162.31 274.082C162.685 274.306 162.981 274.615 163.2 275.008C163.419 275.398 163.527 275.846 163.524 276.352C163.527 276.878 163.407 277.35 163.165 277.77C162.923 278.186 162.586 278.514 162.153 278.754C161.721 278.993 161.217 279.112 160.642 279.109ZM160.634 277.937C160.918 277.937 161.172 277.868 161.396 277.73C161.619 277.592 161.797 277.406 161.927 277.172C162.057 276.937 162.121 276.674 162.118 276.383C162.121 276.096 162.058 275.837 161.931 275.605C161.806 275.374 161.632 275.19 161.411 275.055C161.19 274.919 160.937 274.852 160.653 274.852C160.442 274.852 160.246 274.892 160.063 274.973C159.881 275.053 159.722 275.165 159.587 275.309C159.451 275.449 159.345 275.613 159.267 275.801C159.191 275.986 159.152 276.184 159.149 276.395C159.152 276.673 159.217 276.93 159.345 277.164C159.472 277.398 159.648 277.586 159.872 277.727C160.096 277.867 160.35 277.937 160.634 277.937Z" fill="#06A987"/>
<path d="M177.711 279V277.953L180.488 275.23C180.754 274.962 180.975 274.724 181.152 274.516C181.329 274.307 181.462 274.105 181.551 273.91C181.639 273.715 181.684 273.507 181.684 273.285C181.684 273.033 181.626 272.816 181.512 272.637C181.397 272.454 181.24 272.314 181.039 272.215C180.839 272.116 180.611 272.066 180.355 272.066C180.092 272.066 179.862 272.121 179.664 272.23C179.466 272.337 179.313 272.49 179.203 272.688C179.096 272.885 179.043 273.121 179.043 273.395H177.664C177.664 272.887 177.78 272.445 178.012 272.07C178.243 271.695 178.563 271.405 178.969 271.199C179.378 270.993 179.846 270.891 180.375 270.891C180.911 270.891 181.383 270.991 181.789 271.191C182.195 271.392 182.51 271.667 182.734 272.016C182.961 272.365 183.074 272.763 183.074 273.211C183.074 273.51 183.017 273.805 182.902 274.094C182.788 274.383 182.586 274.703 182.297 275.055C182.01 275.406 181.608 275.832 181.09 276.332L179.711 277.734V277.789H183.195V279H177.711ZM187.5 279.152C186.857 279.152 186.305 278.99 185.844 278.664C185.385 278.336 185.033 277.863 184.785 277.246C184.54 276.626 184.418 275.88 184.418 275.008C184.421 274.135 184.544 273.393 184.789 272.781C185.036 272.167 185.389 271.698 185.848 271.375C186.309 271.052 186.859 270.891 187.5 270.891C188.141 270.891 188.691 271.052 189.152 271.375C189.613 271.698 189.966 272.167 190.211 272.781C190.458 273.396 190.582 274.138 190.582 275.008C190.582 275.883 190.458 276.63 190.211 277.25C189.966 277.867 189.613 278.339 189.152 278.664C188.694 278.99 188.143 279.152 187.5 279.152ZM187.5 277.93C188 277.93 188.395 277.684 188.684 277.191C188.975 276.697 189.121 275.969 189.121 275.008C189.121 274.372 189.055 273.839 188.922 273.406C188.789 272.974 188.602 272.648 188.359 272.43C188.117 272.208 187.831 272.098 187.5 272.098C187.003 272.098 186.609 272.345 186.32 272.84C186.031 273.332 185.885 274.055 185.883 275.008C185.88 275.646 185.944 276.182 186.074 276.617C186.207 277.052 186.395 277.38 186.637 277.602C186.879 277.82 187.167 277.93 187.5 277.93ZM191.88 279V277.953L194.657 275.23C194.923 274.962 195.144 274.724 195.321 274.516C195.498 274.307 195.631 274.105 195.72 273.91C195.808 273.715 195.853 273.507 195.853 273.285C195.853 273.033 195.795 272.816 195.681 272.637C195.566 272.454 195.409 272.314 195.208 272.215C195.007 272.116 194.78 272.066 194.524 272.066C194.261 272.066 194.031 272.121 193.833 272.23C193.635 272.337 193.481 272.49 193.372 272.688C193.265 272.885 193.212 273.121 193.212 273.395H191.833C191.833 272.887 191.949 272.445 192.181 272.07C192.412 271.695 192.731 271.405 193.138 271.199C193.547 270.993 194.015 270.891 194.544 270.891C195.08 270.891 195.552 270.991 195.958 271.191C196.364 271.392 196.679 271.667 196.903 272.016C197.13 272.365 197.243 272.763 197.243 273.211C197.243 273.51 197.186 273.805 197.071 274.094C196.957 274.383 196.755 274.703 196.466 275.055C196.179 275.406 195.777 275.832 195.259 276.332L193.88 277.734V277.789H197.364V279H191.88ZM199.005 279L202.407 272.266V272.211H198.458V271H203.907V272.238L200.509 279H199.005Z" fill="#06A987"/>
<path d="M216.711 279V277.953L219.488 275.23C219.754 274.962 219.975 274.724 220.152 274.516C220.329 274.307 220.462 274.105 220.551 273.91C220.639 273.715 220.684 273.507 220.684 273.285C220.684 273.033 220.626 272.816 220.512 272.637C220.397 272.454 220.24 272.314 220.039 272.215C219.839 272.116 219.611 272.066 219.355 272.066C219.092 272.066 218.862 272.121 218.664 272.23C218.466 272.337 218.313 272.49 218.203 272.688C218.096 272.885 218.043 273.121 218.043 273.395H216.664C216.664 272.887 216.78 272.445 217.012 272.07C217.243 271.695 217.563 271.405 217.969 271.199C218.378 270.993 218.846 270.891 219.375 270.891C219.911 270.891 220.383 270.991 220.789 271.191C221.195 271.392 221.51 271.667 221.734 272.016C221.961 272.365 222.074 272.763 222.074 273.211C222.074 273.51 222.017 273.805 221.902 274.094C221.788 274.383 221.586 274.703 221.297 275.055C221.01 275.406 220.608 275.832 220.09 276.332L218.711 277.734V277.789H222.195V279H216.711ZM226.5 279.152C225.857 279.152 225.305 278.99 224.844 278.664C224.385 278.336 224.033 277.863 223.785 277.246C223.54 276.626 223.418 275.88 223.418 275.008C223.421 274.135 223.544 273.393 223.789 272.781C224.036 272.167 224.389 271.698 224.848 271.375C225.309 271.052 225.859 270.891 226.5 270.891C227.141 270.891 227.691 271.052 228.152 271.375C228.613 271.698 228.966 272.167 229.211 272.781C229.458 273.396 229.582 274.138 229.582 275.008C229.582 275.883 229.458 276.63 229.211 277.25C228.966 277.867 228.613 278.339 228.152 278.664C227.694 278.99 227.143 279.152 226.5 279.152ZM226.5 277.93C227 277.93 227.395 277.684 227.684 277.191C227.975 276.697 228.121 275.969 228.121 275.008C228.121 274.372 228.055 273.839 227.922 273.406C227.789 272.974 227.602 272.648 227.359 272.43C227.117 272.208 226.831 272.098 226.5 272.098C226.003 272.098 225.609 272.345 225.32 272.84C225.031 273.332 224.885 274.055 224.883 275.008C224.88 275.646 224.944 276.182 225.074 276.617C225.207 277.052 225.395 277.38 225.637 277.602C225.879 277.82 226.167 277.93 226.5 277.93ZM230.88 279V277.953L233.657 275.23C233.923 274.962 234.144 274.724 234.321 274.516C234.498 274.307 234.631 274.105 234.72 273.91C234.808 273.715 234.853 273.507 234.853 273.285C234.853 273.033 234.795 272.816 234.681 272.637C234.566 272.454 234.409 272.314 234.208 272.215C234.007 272.116 233.78 272.066 233.524 272.066C233.261 272.066 233.031 272.121 232.833 272.23C232.635 272.337 232.481 272.49 232.372 272.688C232.265 272.885 232.212 273.121 232.212 273.395H230.833C230.833 272.887 230.949 272.445 231.181 272.07C231.412 271.695 231.731 271.405 232.138 271.199C232.547 270.993 233.015 270.891 233.544 270.891C234.08 270.891 234.552 270.991 234.958 271.191C235.364 271.392 235.679 271.667 235.903 272.016C236.13 272.365 236.243 272.763 236.243 273.211C236.243 273.51 236.186 273.805 236.071 274.094C235.957 274.383 235.755 274.703 235.466 275.055C235.179 275.406 234.777 275.832 234.259 276.332L232.88 277.734V277.789H236.364V279H230.88ZM240.556 279.109C239.975 279.109 239.459 279.012 239.009 278.816C238.561 278.621 238.209 278.354 237.954 278.016C237.701 277.674 237.576 277.288 237.579 276.855C237.576 276.52 237.649 276.211 237.798 275.93C237.946 275.648 238.147 275.414 238.399 275.227C238.655 275.036 238.938 274.915 239.251 274.863V274.809C238.84 274.717 238.506 274.508 238.251 274.18C237.998 273.849 237.873 273.467 237.876 273.035C237.873 272.624 237.988 272.257 238.22 271.934C238.451 271.611 238.769 271.357 239.173 271.172C239.576 270.984 240.037 270.891 240.556 270.891C241.069 270.891 241.526 270.984 241.927 271.172C242.33 271.357 242.648 271.611 242.88 271.934C243.114 272.257 243.231 272.624 243.231 273.035C243.231 273.467 243.103 273.849 242.845 274.18C242.59 274.508 242.26 274.717 241.856 274.809V274.863C242.169 274.915 242.45 275.036 242.7 275.227C242.953 275.414 243.153 275.648 243.302 275.93C243.453 276.211 243.528 276.52 243.528 276.855C243.528 277.288 243.401 277.674 243.146 278.016C242.89 278.354 242.539 278.621 242.091 278.816C241.646 279.012 241.134 279.109 240.556 279.109ZM240.556 277.992C240.855 277.992 241.116 277.941 241.337 277.84C241.558 277.736 241.73 277.59 241.853 277.402C241.975 277.215 242.037 276.999 242.04 276.754C242.037 276.499 241.971 276.273 241.841 276.078C241.713 275.88 241.537 275.725 241.313 275.613C241.092 275.501 240.84 275.445 240.556 275.445C240.269 275.445 240.014 275.501 239.79 275.613C239.566 275.725 239.389 275.88 239.259 276.078C239.131 276.273 239.069 276.499 239.071 276.754C239.069 276.999 239.129 277.215 239.251 277.402C239.373 277.587 239.545 277.732 239.767 277.836C239.991 277.94 240.254 277.992 240.556 277.992ZM240.556 274.348C240.8 274.348 241.017 274.298 241.204 274.199C241.394 274.1 241.544 273.962 241.653 273.785C241.763 273.608 241.819 273.404 241.821 273.172C241.819 272.943 241.764 272.742 241.657 272.57C241.55 272.396 241.402 272.262 241.212 272.168C241.022 272.072 240.803 272.023 240.556 272.023C240.303 272.023 240.08 272.072 239.888 272.168C239.698 272.262 239.549 272.396 239.442 272.57C239.338 272.742 239.287 272.943 239.29 273.172C239.287 273.404 239.34 273.608 239.446 273.785C239.556 273.96 239.705 274.098 239.896 274.199C240.088 274.298 240.308 274.348 240.556 274.348Z" fill="#06A987"/>
<path d="M256.711 279V277.953L259.488 275.23C259.754 274.962 259.975 274.724 260.152 274.516C260.329 274.307 260.462 274.105 260.551 273.91C260.639 273.715 260.684 273.507 260.684 273.285C260.684 273.033 260.626 272.816 260.512 272.637C260.397 272.454 260.24 272.314 260.039 272.215C259.839 272.116 259.611 272.066 259.355 272.066C259.092 272.066 258.862 272.121 258.664 272.23C258.466 272.337 258.313 272.49 258.203 272.688C258.096 272.885 258.043 273.121 258.043 273.395H256.664C256.664 272.887 256.78 272.445 257.012 272.07C257.243 271.695 257.563 271.405 257.969 271.199C258.378 270.993 258.846 270.891 259.375 270.891C259.911 270.891 260.383 270.991 260.789 271.191C261.195 271.392 261.51 271.667 261.734 272.016C261.961 272.365 262.074 272.763 262.074 273.211C262.074 273.51 262.017 273.805 261.902 274.094C261.788 274.383 261.586 274.703 261.297 275.055C261.01 275.406 260.608 275.832 260.09 276.332L258.711 277.734V277.789H262.195V279H256.711ZM266.5 279.152C265.857 279.152 265.305 278.99 264.844 278.664C264.385 278.336 264.033 277.863 263.785 277.246C263.54 276.626 263.418 275.88 263.418 275.008C263.421 274.135 263.544 273.393 263.789 272.781C264.036 272.167 264.389 271.698 264.848 271.375C265.309 271.052 265.859 270.891 266.5 270.891C267.141 270.891 267.691 271.052 268.152 271.375C268.613 271.698 268.966 272.167 269.211 272.781C269.458 273.396 269.582 274.138 269.582 275.008C269.582 275.883 269.458 276.63 269.211 277.25C268.966 277.867 268.613 278.339 268.152 278.664C267.694 278.99 267.143 279.152 266.5 279.152ZM266.5 277.93C267 277.93 267.395 277.684 267.684 277.191C267.975 276.697 268.121 275.969 268.121 275.008C268.121 274.372 268.055 273.839 267.922 273.406C267.789 272.974 267.602 272.648 267.359 272.43C267.117 272.208 266.831 272.098 266.5 272.098C266.003 272.098 265.609 272.345 265.32 272.84C265.031 273.332 264.885 274.055 264.883 275.008C264.88 275.646 264.944 276.182 265.074 276.617C265.207 277.052 265.395 277.38 265.637 277.602C265.879 277.82 266.167 277.93 266.5 277.93ZM270.88 279V277.953L273.657 275.23C273.923 274.962 274.144 274.724 274.321 274.516C274.498 274.307 274.631 274.105 274.72 273.91C274.808 273.715 274.853 273.507 274.853 273.285C274.853 273.033 274.795 272.816 274.681 272.637C274.566 272.454 274.409 272.314 274.208 272.215C274.007 272.116 273.78 272.066 273.524 272.066C273.261 272.066 273.031 272.121 272.833 272.23C272.635 272.337 272.481 272.49 272.372 272.688C272.265 272.885 272.212 273.121 272.212 273.395H270.833C270.833 272.887 270.949 272.445 271.181 272.07C271.412 271.695 271.731 271.405 272.138 271.199C272.547 270.993 273.015 270.891 273.544 270.891C274.08 270.891 274.552 270.991 274.958 271.191C275.364 271.392 275.679 271.667 275.903 272.016C276.13 272.365 276.243 272.763 276.243 273.211C276.243 273.51 276.186 273.805 276.071 274.094C275.957 274.383 275.755 274.703 275.466 275.055C275.179 275.406 274.777 275.832 274.259 276.332L272.88 277.734V277.789H276.364V279H270.88ZM280.489 270.891C280.872 270.893 281.244 270.961 281.606 271.094C281.971 271.224 282.299 271.438 282.591 271.734C282.882 272.029 283.114 272.423 283.286 272.918C283.458 273.413 283.544 274.025 283.544 274.754C283.547 275.441 283.474 276.056 283.325 276.598C283.179 277.137 282.97 277.592 282.696 277.965C282.423 278.337 282.093 278.621 281.708 278.816C281.323 279.012 280.889 279.109 280.407 279.109C279.902 279.109 279.454 279.01 279.063 278.812C278.675 278.615 278.362 278.344 278.122 278C277.882 277.656 277.735 277.263 277.681 276.82H279.106C279.179 277.138 279.328 277.391 279.552 277.578C279.778 277.763 280.063 277.855 280.407 277.855C280.962 277.855 281.389 277.615 281.688 277.133C281.988 276.651 282.138 275.982 282.138 275.125H282.083C281.955 275.354 281.79 275.552 281.587 275.719C281.384 275.883 281.153 276.009 280.896 276.098C280.64 276.186 280.369 276.23 280.083 276.23C279.614 276.23 279.192 276.118 278.817 275.895C278.445 275.671 278.149 275.363 277.931 274.973C277.715 274.582 277.605 274.135 277.603 273.633C277.603 273.112 277.722 272.645 277.962 272.23C278.204 271.814 278.541 271.486 278.974 271.246C279.406 271.004 279.911 270.885 280.489 270.891ZM280.493 272.063C280.212 272.063 279.958 272.132 279.731 272.27C279.507 272.405 279.33 272.59 279.2 272.824C279.073 273.056 279.009 273.315 279.009 273.602C279.011 273.885 279.075 274.143 279.2 274.375C279.328 274.607 279.501 274.79 279.72 274.926C279.941 275.061 280.194 275.129 280.478 275.129C280.688 275.129 280.885 275.089 281.067 275.008C281.25 274.927 281.409 274.815 281.544 274.672C281.682 274.526 281.789 274.361 281.864 274.176C281.942 273.991 281.98 273.796 281.978 273.59C281.978 273.316 281.912 273.064 281.782 272.832C281.655 272.6 281.479 272.414 281.255 272.273C281.034 272.133 280.78 272.063 280.493 272.063Z" fill="#06A987"/>
<path d="M296.711 279V277.953L299.488 275.23C299.754 274.962 299.975 274.724 300.152 274.516C300.329 274.307 300.462 274.105 300.551 273.91C300.639 273.715 300.684 273.507 300.684 273.285C300.684 273.033 300.626 272.816 300.512 272.637C300.397 272.454 300.24 272.314 300.039 272.215C299.839 272.116 299.611 272.066 299.355 272.066C299.092 272.066 298.862 272.121 298.664 272.23C298.466 272.337 298.313 272.49 298.203 272.688C298.096 272.885 298.043 273.121 298.043 273.395H296.664C296.664 272.887 296.78 272.445 297.012 272.07C297.243 271.695 297.563 271.405 297.969 271.199C298.378 270.993 298.846 270.891 299.375 270.891C299.911 270.891 300.383 270.991 300.789 271.191C301.195 271.392 301.51 271.667 301.734 272.016C301.961 272.365 302.074 272.763 302.074 273.211C302.074 273.51 302.017 273.805 301.902 274.094C301.788 274.383 301.586 274.703 301.297 275.055C301.01 275.406 300.608 275.832 300.09 276.332L298.711 277.734V277.789H302.195V279H296.711ZM306.5 279.152C305.857 279.152 305.305 278.99 304.844 278.664C304.385 278.336 304.033 277.863 303.785 277.246C303.54 276.626 303.418 275.88 303.418 275.008C303.421 274.135 303.544 273.393 303.789 272.781C304.036 272.167 304.389 271.698 304.848 271.375C305.309 271.052 305.859 270.891 306.5 270.891C307.141 270.891 307.691 271.052 308.152 271.375C308.613 271.698 308.966 272.167 309.211 272.781C309.458 273.396 309.582 274.138 309.582 275.008C309.582 275.883 309.458 276.63 309.211 277.25C308.966 277.867 308.613 278.339 308.152 278.664C307.694 278.99 307.143 279.152 306.5 279.152ZM306.5 277.93C307 277.93 307.395 277.684 307.684 277.191C307.975 276.697 308.121 275.969 308.121 275.008C308.121 274.372 308.055 273.839 307.922 273.406C307.789 272.974 307.602 272.648 307.359 272.43C307.117 272.208 306.831 272.098 306.5 272.098C306.003 272.098 305.609 272.345 305.32 272.84C305.031 273.332 304.885 274.055 304.883 275.008C304.88 275.646 304.944 276.182 305.074 276.617C305.207 277.052 305.395 277.38 305.637 277.602C305.879 277.82 306.167 277.93 306.5 277.93ZM313.751 279.109C313.188 279.109 312.688 279.013 312.251 278.82C311.816 278.628 311.472 278.359 311.22 278.016C310.967 277.672 310.833 277.275 310.817 276.824H312.286C312.299 277.04 312.371 277.229 312.501 277.391C312.631 277.549 312.804 277.673 313.021 277.762C313.237 277.85 313.479 277.895 313.747 277.895C314.034 277.895 314.287 277.845 314.509 277.746C314.73 277.645 314.903 277.504 315.028 277.324C315.153 277.145 315.215 276.937 315.212 276.703C315.215 276.461 315.152 276.247 315.024 276.062C314.897 275.878 314.712 275.733 314.47 275.629C314.23 275.525 313.941 275.473 313.603 275.473H312.896V274.355H313.603C313.881 274.355 314.125 274.307 314.333 274.211C314.544 274.115 314.709 273.979 314.829 273.805C314.949 273.628 315.007 273.423 315.005 273.191C315.007 272.965 314.957 272.768 314.853 272.602C314.751 272.432 314.606 272.301 314.419 272.207C314.234 272.113 314.017 272.066 313.767 272.066C313.522 272.066 313.295 272.111 313.087 272.199C312.879 272.288 312.711 272.414 312.583 272.578C312.455 272.74 312.388 272.932 312.38 273.156H310.985C310.996 272.708 311.125 272.315 311.372 271.977C311.622 271.635 311.955 271.37 312.372 271.18C312.789 270.987 313.256 270.891 313.774 270.891C314.308 270.891 314.772 270.991 315.165 271.191C315.561 271.389 315.867 271.656 316.083 271.992C316.299 272.328 316.407 272.699 316.407 273.105C316.41 273.556 316.277 273.934 316.009 274.238C315.743 274.543 315.394 274.742 314.962 274.836V274.898C315.524 274.977 315.955 275.185 316.255 275.523C316.557 275.859 316.707 276.277 316.704 276.777C316.704 277.225 316.576 277.626 316.321 277.98C316.069 278.332 315.72 278.608 315.274 278.809C314.832 279.009 314.324 279.109 313.751 279.109ZM321.002 279.152C320.359 279.152 319.807 278.99 319.346 278.664C318.887 278.336 318.535 277.863 318.287 277.246C318.042 276.626 317.92 275.88 317.92 275.008C317.923 274.135 318.046 273.393 318.291 272.781C318.538 272.167 318.891 271.698 319.35 271.375C319.811 271.052 320.361 270.891 321.002 270.891C321.643 270.891 322.193 271.052 322.654 271.375C323.115 271.698 323.468 272.167 323.713 272.781C323.96 273.396 324.084 274.138 324.084 275.008C324.084 275.883 323.96 276.63 323.713 277.25C323.468 277.867 323.115 278.339 322.654 278.664C322.196 278.99 321.645 279.152 321.002 279.152ZM321.002 277.93C321.502 277.93 321.896 277.684 322.186 277.191C322.477 276.697 322.623 275.969 322.623 275.008C322.623 274.372 322.557 273.839 322.424 273.406C322.291 272.974 322.104 272.648 321.861 272.43C321.619 272.208 321.333 272.098 321.002 272.098C320.505 272.098 320.111 272.345 319.822 272.84C319.533 273.332 319.387 274.055 319.385 275.008C319.382 275.646 319.446 276.182 319.576 276.617C319.709 277.052 319.896 277.38 320.139 277.602C320.381 277.82 320.669 277.93 321.002 277.93Z" fill="#06A987"/>
<path d="M336.711 279V277.953L339.488 275.23C339.754 274.962 339.975 274.724 340.152 274.516C340.329 274.307 340.462 274.105 340.551 273.91C340.639 273.715 340.684 273.507 340.684 273.285C340.684 273.033 340.626 272.816 340.512 272.637C340.397 272.454 340.24 272.314 340.039 272.215C339.839 272.116 339.611 272.066 339.355 272.066C339.092 272.066 338.862 272.121 338.664 272.23C338.466 272.337 338.313 272.49 338.203 272.688C338.096 272.885 338.043 273.121 338.043 273.395H336.664C336.664 272.887 336.78 272.445 337.012 272.07C337.243 271.695 337.563 271.405 337.969 271.199C338.378 270.993 338.846 270.891 339.375 270.891C339.911 270.891 340.383 270.991 340.789 271.191C341.195 271.392 341.51 271.667 341.734 272.016C341.961 272.365 342.074 272.763 342.074 273.211C342.074 273.51 342.017 273.805 341.902 274.094C341.788 274.383 341.586 274.703 341.297 275.055C341.01 275.406 340.608 275.832 340.09 276.332L338.711 277.734V277.789H342.195V279H336.711ZM346.5 279.152C345.857 279.152 345.305 278.99 344.844 278.664C344.385 278.336 344.033 277.863 343.785 277.246C343.54 276.626 343.418 275.88 343.418 275.008C343.421 274.135 343.544 273.393 343.789 272.781C344.036 272.167 344.389 271.698 344.848 271.375C345.309 271.052 345.859 270.891 346.5 270.891C347.141 270.891 347.691 271.052 348.152 271.375C348.613 271.698 348.966 272.167 349.211 272.781C349.458 273.396 349.582 274.138 349.582 275.008C349.582 275.883 349.458 276.63 349.211 277.25C348.966 277.867 348.613 278.339 348.152 278.664C347.694 278.99 347.143 279.152 346.5 279.152ZM346.5 277.93C347 277.93 347.395 277.684 347.684 277.191C347.975 276.697 348.121 275.969 348.121 275.008C348.121 274.372 348.055 273.839 347.922 273.406C347.789 272.974 347.602 272.648 347.359 272.43C347.117 272.208 346.831 272.098 346.5 272.098C346.003 272.098 345.609 272.345 345.32 272.84C345.031 273.332 344.885 274.055 344.883 275.008C344.88 275.646 344.944 276.182 345.074 276.617C345.207 277.052 345.395 277.38 345.637 277.602C345.879 277.82 346.167 277.93 346.5 277.93ZM353.751 279.109C353.188 279.109 352.688 279.013 352.251 278.82C351.816 278.628 351.472 278.359 351.22 278.016C350.967 277.672 350.833 277.275 350.817 276.824H352.286C352.299 277.04 352.371 277.229 352.501 277.391C352.631 277.549 352.804 277.673 353.021 277.762C353.237 277.85 353.479 277.895 353.747 277.895C354.034 277.895 354.287 277.845 354.509 277.746C354.73 277.645 354.903 277.504 355.028 277.324C355.153 277.145 355.215 276.937 355.212 276.703C355.215 276.461 355.152 276.247 355.024 276.062C354.897 275.878 354.712 275.733 354.47 275.629C354.23 275.525 353.941 275.473 353.603 275.473H352.896V274.355H353.603C353.881 274.355 354.125 274.307 354.333 274.211C354.544 274.115 354.709 273.979 354.829 273.805C354.949 273.628 355.007 273.423 355.005 273.191C355.007 272.965 354.957 272.768 354.853 272.602C354.751 272.432 354.606 272.301 354.419 272.207C354.234 272.113 354.017 272.066 353.767 272.066C353.522 272.066 353.295 272.111 353.087 272.199C352.879 272.288 352.711 272.414 352.583 272.578C352.455 272.74 352.388 272.932 352.38 273.156H350.985C350.996 272.708 351.125 272.315 351.372 271.977C351.622 271.635 351.955 271.37 352.372 271.18C352.789 270.987 353.256 270.891 353.774 270.891C354.308 270.891 354.772 270.991 355.165 271.191C355.561 271.389 355.867 271.656 356.083 271.992C356.299 272.328 356.407 272.699 356.407 273.105C356.41 273.556 356.277 273.934 356.009 274.238C355.743 274.543 355.394 274.742 354.962 274.836V274.898C355.524 274.977 355.955 275.185 356.255 275.523C356.557 275.859 356.707 276.277 356.704 276.777C356.704 277.225 356.576 277.626 356.321 277.98C356.069 278.332 355.72 278.608 355.274 278.809C354.832 279.009 354.324 279.109 353.751 279.109ZM361.299 271V279H359.85V272.41H359.803L357.932 273.605V272.277L359.92 271H361.299Z" fill="#06A987"/>
<path d="M30.668 266.152C30.0247 266.152 29.4727 265.99 29.0117 265.664C28.5534 265.336 28.2005 264.863 27.9531 264.246C27.7083 263.626 27.5859 262.88 27.5859 262.008C27.5885 261.135 27.7122 260.393 27.957 259.781C28.2044 259.167 28.5573 258.698 29.0156 258.375C29.4766 258.052 30.0273 257.891 30.668 257.891C31.3086 257.891 31.8594 258.052 32.3203 258.375C32.7812 258.698 33.1341 259.167 33.3789 259.781C33.6263 260.396 33.75 261.138 33.75 262.008C33.75 262.883 33.6263 263.63 33.3789 264.25C33.1341 264.867 32.7812 265.339 32.3203 265.664C31.862 265.99 31.3112 266.152 30.668 266.152ZM30.668 264.93C31.168 264.93 31.5625 264.684 31.8516 264.191C32.1432 263.697 32.2891 262.969 32.2891 262.008C32.2891 261.372 32.2227 260.839 32.0898 260.406C31.957 259.974 31.7695 259.648 31.5273 259.43C31.2852 259.208 30.9987 259.098 30.668 259.098C30.1706 259.098 29.7773 259.345 29.4883 259.84C29.1992 260.332 29.0534 261.055 29.0508 262.008C29.0482 262.646 29.112 263.182 29.2422 263.617C29.375 264.052 29.5625 264.38 29.8047 264.602C30.0469 264.82 30.3346 264.93 30.668 264.93Z" fill="#06A987"/>
<path d="M26.4922 240.109C25.9714 240.109 25.5052 240.012 25.0938 239.816C24.6823 239.618 24.3555 239.348 24.1133 239.004C23.8737 238.66 23.7461 238.267 23.7305 237.824H25.1367C25.1628 238.152 25.3047 238.421 25.5625 238.629C25.8203 238.835 26.1302 238.937 26.4922 238.937C26.776 238.937 27.0286 238.872 27.25 238.742C27.4714 238.612 27.6458 238.431 27.7734 238.199C27.901 237.967 27.9635 237.703 27.9609 237.406C27.9635 237.104 27.8997 236.836 27.7695 236.602C27.6393 236.367 27.4609 236.184 27.2344 236.051C27.0078 235.915 26.7474 235.848 26.4531 235.848C26.2135 235.845 25.9779 235.889 25.7461 235.98C25.5143 236.072 25.3307 236.191 25.1953 236.34L23.8867 236.125L24.3047 232H28.9453V233.211H25.5039L25.2734 235.332H25.3203C25.4688 235.158 25.6784 235.013 25.9492 234.898C26.2201 234.781 26.5169 234.723 26.8398 234.723C27.3242 234.723 27.7565 234.837 28.1367 235.066C28.5169 235.293 28.8164 235.605 29.0352 236.004C29.2539 236.402 29.3633 236.858 29.3633 237.371C29.3633 237.9 29.2409 238.371 28.9961 238.785C28.7539 239.197 28.4167 239.521 27.9844 239.758C27.5547 239.992 27.0573 240.109 26.4922 240.109ZM33.6289 240.152C32.9857 240.152 32.4336 239.99 31.9727 239.664C31.5143 239.336 31.1615 238.863 30.9141 238.246C30.6693 237.626 30.5469 236.88 30.5469 236.008C30.5495 235.135 30.6732 234.393 30.918 233.781C31.1654 233.167 31.5182 232.698 31.9766 232.375C32.4375 232.052 32.9883 231.891 33.6289 231.891C34.2695 231.891 34.8203 232.052 35.2813 232.375C35.7422 232.698 36.0951 233.167 36.3398 233.781C36.5872 234.396 36.7109 235.138 36.7109 236.008C36.7109 236.883 36.5872 237.63 36.3398 238.25C36.0951 238.867 35.7422 239.339 35.2813 239.664C34.8229 239.99 34.2721 240.152 33.6289 240.152ZM33.6289 238.93C34.1289 238.93 34.5234 238.684 34.8125 238.191C35.1042 237.697 35.25 236.969 35.25 236.008C35.25 235.372 35.1836 234.839 35.0508 234.406C34.918 233.974 34.7305 233.648 34.4883 233.43C34.2461 233.208 33.9596 233.098 33.6289 233.098C33.1315 233.098 32.7383 233.345 32.4492 233.84C32.1602 234.332 32.0143 235.055 32.0117 236.008C32.0091 236.646 32.0729 237.182 32.2031 237.617C32.3359 238.052 32.5234 238.38 32.7656 238.602C33.0078 238.82 33.2956 238.93 33.6289 238.93Z" fill="#06A987"/>
<path d="M21.9648 204V212H20.5156V205.41H20.4688L18.5977 206.605V205.277L20.5859 204H21.9648ZM26.9531 212.152C26.3099 212.152 25.7578 211.99 25.2969 211.664C24.8385 211.336 24.4857 210.863 24.2383 210.246C23.9935 209.626 23.8711 208.88 23.8711 208.008C23.8737 207.135 23.9974 206.393 24.2422 205.781C24.4896 205.167 24.8424 204.698 25.3008 204.375C25.7617 204.052 26.3125 203.891 26.9531 203.891C27.5938 203.891 28.1445 204.052 28.6055 204.375C29.0664 204.698 29.4193 205.167 29.6641 205.781C29.9115 206.396 30.0352 207.138 30.0352 208.008C30.0352 208.883 29.9115 209.63 29.6641 210.25C29.4193 210.867 29.0664 211.339 28.6055 211.664C28.1471 211.99 27.5964 212.152 26.9531 212.152ZM26.9531 210.93C27.4531 210.93 27.8477 210.684 28.1367 210.191C28.4284 209.697 28.5742 208.969 28.5742 208.008C28.5742 207.372 28.5078 206.839 28.375 206.406C28.2422 205.974 28.0547 205.648 27.8125 205.43C27.5703 205.208 27.2839 205.098 26.9531 205.098C26.4557 205.098 26.0625 205.345 25.7734 205.84C25.4844 206.332 25.3385 207.055 25.3359 208.008C25.3333 208.646 25.3971 209.182 25.5273 209.617C25.6602 210.052 25.8477 210.38 26.0898 210.602C26.332 210.82 26.6198 210.93 26.9531 210.93ZM34.29 212.152C33.6468 212.152 33.0947 211.99 32.6338 211.664C32.1755 211.336 31.8226 210.863 31.5752 210.246C31.3304 209.626 31.208 208.88 31.208 208.008C31.2106 207.135 31.3343 206.393 31.5791 205.781C31.8265 205.167 32.1794 204.698 32.6377 204.375C33.0986 204.052 33.6494 203.891 34.29 203.891C34.9307 203.891 35.4814 204.052 35.9424 204.375C36.4033 204.698 36.7562 205.167 37.001 205.781C37.2484 206.396 37.3721 207.138 37.3721 208.008C37.3721 208.883 37.2484 209.63 37.001 210.25C36.7562 210.867 36.4033 211.339 35.9424 211.664C35.484 211.99 34.9333 212.152 34.29 212.152ZM34.29 210.93C34.79 210.93 35.1846 210.684 35.4736 210.191C35.7653 209.697 35.9111 208.969 35.9111 208.008C35.9111 207.372 35.8447 206.839 35.7119 206.406C35.5791 205.974 35.3916 205.648 35.1494 205.43C34.9072 205.208 34.6208 205.098 34.29 205.098C33.7926 205.098 33.3994 205.345 33.1104 205.84C32.8213 206.332 32.6755 207.055 32.6729 208.008C32.6702 208.646 32.734 209.182 32.8643 209.617C32.9971 210.052 33.1846 210.38 33.4268 210.602C33.6689 210.82 33.9567 210.93 34.29 210.93Z" fill="#06A987"/>
<path d="M21.9648 179V187H20.5156V180.41H20.4688L18.5977 181.605V180.277L20.5859 179H21.9648ZM26.7773 187.109C26.2565 187.109 25.7904 187.012 25.3789 186.816C24.9674 186.618 24.6406 186.348 24.3984 186.004C24.1589 185.66 24.0313 185.267 24.0156 184.824H25.4219C25.4479 185.152 25.5898 185.421 25.8477 185.629C26.1055 185.835 26.4154 185.937 26.7773 185.937C27.0612 185.937 27.3138 185.872 27.5352 185.742C27.7565 185.612 27.931 185.431 28.0586 185.199C28.1862 184.967 28.2487 184.703 28.2461 184.406C28.2487 184.104 28.1849 183.836 28.0547 183.602C27.9245 183.367 27.7461 183.184 27.5195 183.051C27.293 182.915 27.0326 182.848 26.7383 182.848C26.4987 182.845 26.263 182.889 26.0313 182.98C25.7995 183.072 25.6159 183.191 25.4805 183.34L24.1719 183.125L24.5898 179H29.2305V180.211H25.7891L25.5586 182.332H25.6055C25.7539 182.158 25.9635 182.013 26.2344 181.898C26.5052 181.781 26.8021 181.723 27.125 181.723C27.6094 181.723 28.0417 181.837 28.4219 182.066C28.8021 182.293 29.1016 182.605 29.3203 183.004C29.5391 183.402 29.6484 183.858 29.6484 184.371C29.6484 184.9 29.526 185.371 29.2813 185.785C29.0391 186.197 28.7018 186.521 28.2695 186.758C27.8398 186.992 27.3424 187.109 26.7773 187.109ZM33.9141 187.152C33.2708 187.152 32.7188 186.99 32.2578 186.664C31.7995 186.336 31.4466 185.863 31.1992 185.246C30.9544 184.626 30.832 183.88 30.832 183.008C30.8346 182.135 30.9583 181.393 31.2031 180.781C31.4505 180.167 31.8034 179.698 32.2617 179.375C32.7227 179.052 33.2734 178.891 33.9141 178.891C34.5547 178.891 35.1055 179.052 35.5664 179.375C36.0273 179.698 36.3802 180.167 36.625 180.781C36.8724 181.396 36.9961 182.138 36.9961 183.008C36.9961 183.883 36.8724 184.63 36.625 185.25C36.3802 185.867 36.0273 186.339 35.5664 186.664C35.1081 186.99 34.5573 187.152 33.9141 187.152ZM33.9141 185.93C34.4141 185.93 34.8086 185.684 35.0977 185.191C35.3893 184.697 35.5352 183.969 35.5352 183.008C35.5352 182.372 35.4688 181.839 35.3359 181.406C35.2031 180.974 35.0156 180.648 34.7734 180.43C34.5313 180.208 34.2448 180.098 33.9141 180.098C33.4167 180.098 33.0234 180.345 32.7344 180.84C32.4453 181.332 32.2995 182.055 32.2969 183.008C32.2943 183.646 32.3581 184.182 32.4883 184.617C32.6211 185.052 32.8086 185.38 33.0508 185.602C33.293 185.82 33.5807 185.93 33.9141 185.93Z" fill="#06A987"/>
<path d="M17.7109 162V160.953L20.4883 158.23C20.7539 157.962 20.9753 157.724 21.1523 157.516C21.3294 157.307 21.4622 157.105 21.5508 156.91C21.6393 156.715 21.6836 156.507 21.6836 156.285C21.6836 156.033 21.6263 155.816 21.5117 155.637C21.3971 155.454 21.2396 155.314 21.0391 155.215C20.8385 155.116 20.6107 155.066 20.3555 155.066C20.0924 155.066 19.862 155.121 19.6641 155.23C19.4661 155.337 19.3125 155.49 19.2031 155.688C19.0964 155.885 19.043 156.121 19.043 156.395H17.6641C17.6641 155.887 17.7799 155.445 18.0117 155.07C18.2435 154.695 18.5625 154.405 18.9688 154.199C19.3776 153.993 19.8464 153.891 20.375 153.891C20.9115 153.891 21.3828 153.991 21.7891 154.191C22.1953 154.392 22.5104 154.667 22.7344 155.016C22.9609 155.365 23.0742 155.763 23.0742 156.211C23.0742 156.51 23.0169 156.805 22.9023 157.094C22.7878 157.383 22.5859 157.703 22.2969 158.055C22.0104 158.406 21.6081 158.832 21.0898 159.332L19.7109 160.734V160.789H23.1953V162H17.7109ZM27.5 162.152C26.8568 162.152 26.3047 161.99 25.8438 161.664C25.3854 161.336 25.0326 160.863 24.7852 160.246C24.5404 159.626 24.418 158.88 24.418 158.008C24.4206 157.135 24.5443 156.393 24.7891 155.781C25.0365 155.167 25.3893 154.698 25.8477 154.375C26.3086 154.052 26.8594 153.891 27.5 153.891C28.1406 153.891 28.6914 154.052 29.1523 154.375C29.6133 154.698 29.9661 155.167 30.2109 155.781C30.4583 156.396 30.582 157.138 30.582 158.008C30.582 158.883 30.4583 159.63 30.2109 160.25C29.9661 160.867 29.6133 161.339 29.1523 161.664C28.694 161.99 28.1432 162.152 27.5 162.152ZM27.5 160.93C28 160.93 28.3945 160.684 28.6836 160.191C28.9753 159.697 29.1211 158.969 29.1211 158.008C29.1211 157.372 29.0547 156.839 28.9219 156.406C28.7891 155.974 28.6016 155.648 28.3594 155.43C28.1172 155.208 27.8307 155.098 27.5 155.098C27.0026 155.098 26.6094 155.345 26.3203 155.84C26.0313 156.332 25.8854 157.055 25.8828 158.008C25.8802 158.646 25.944 159.182 26.0742 159.617C26.207 160.052 26.3945 160.38 26.6367 160.602C26.8789 160.82 27.1667 160.93 27.5 160.93ZM34.8369 162.152C34.1937 162.152 33.6416 161.99 33.1807 161.664C32.7223 161.336 32.3695 160.863 32.1221 160.246C31.8773 159.626 31.7549 158.88 31.7549 158.008C31.7575 157.135 31.8812 156.393 32.126 155.781C32.3734 155.167 32.7262 154.698 33.1846 154.375C33.6455 154.052 34.1963 153.891 34.8369 153.891C35.4775 153.891 36.0283 154.052 36.4893 154.375C36.9502 154.698 37.3031 155.167 37.5479 155.781C37.7952 156.396 37.9189 157.138 37.9189 158.008C37.9189 158.883 37.7952 159.63 37.5479 160.25C37.3031 160.867 36.9502 161.339 36.4893 161.664C36.0309 161.99 35.4801 162.152 34.8369 162.152ZM34.8369 160.93C35.3369 160.93 35.7314 160.684 36.0205 160.191C36.3122 159.697 36.458 158.969 36.458 158.008C36.458 157.372 36.3916 156.839 36.2588 156.406C36.126 155.974 35.9385 155.648 35.6963 155.43C35.4541 155.208 35.1676 155.098 34.8369 155.098C34.3395 155.098 33.9463 155.345 33.6572 155.84C33.3682 156.332 33.2223 157.055 33.2197 158.008C33.2171 158.646 33.2809 159.182 33.4111 159.617C33.5439 160.052 33.7314 160.38 33.9736 160.602C34.2158 160.82 34.5036 160.93 34.8369 160.93Z" fill="#06A987"/>
<path d="M17.7109 136V134.953L20.4883 132.23C20.7539 131.962 20.9753 131.724 21.1523 131.516C21.3294 131.307 21.4622 131.105 21.5508 130.91C21.6393 130.715 21.6836 130.507 21.6836 130.285C21.6836 130.033 21.6263 129.816 21.5117 129.637C21.3971 129.454 21.2396 129.314 21.0391 129.215C20.8385 129.116 20.6107 129.066 20.3555 129.066C20.0924 129.066 19.862 129.121 19.6641 129.23C19.4661 129.337 19.3125 129.49 19.2031 129.688C19.0964 129.885 19.043 130.121 19.043 130.395H17.6641C17.6641 129.887 17.7799 129.445 18.0117 129.07C18.2435 128.695 18.5625 128.405 18.9688 128.199C19.3776 127.993 19.8464 127.891 20.375 127.891C20.9115 127.891 21.3828 127.991 21.7891 128.191C22.1953 128.392 22.5104 128.667 22.7344 129.016C22.9609 129.365 23.0742 129.763 23.0742 130.211C23.0742 130.51 23.0169 130.805 22.9023 131.094C22.7878 131.383 22.5859 131.703 22.2969 132.055C22.0104 132.406 21.6081 132.832 21.0898 133.332L19.7109 134.734V134.789H23.1953V136H17.7109ZM27.3242 136.109C26.8034 136.109 26.3372 136.012 25.9258 135.816C25.5143 135.618 25.1875 135.348 24.9453 135.004C24.7057 134.66 24.5781 134.267 24.5625 133.824H25.9688C25.9948 134.152 26.1367 134.421 26.3945 134.629C26.6523 134.835 26.9622 134.937 27.3242 134.937C27.6081 134.937 27.8607 134.872 28.082 134.742C28.3034 134.612 28.4779 134.431 28.6055 134.199C28.7331 133.967 28.7956 133.703 28.793 133.406C28.7956 133.104 28.7318 132.836 28.6016 132.602C28.4714 132.367 28.293 132.184 28.0664 132.051C27.8398 131.915 27.5794 131.848 27.2852 131.848C27.0456 131.845 26.8099 131.889 26.5781 131.98C26.3464 132.072 26.1628 132.191 26.0273 132.34L24.7188 132.125L25.1367 128H29.7773V129.211H26.3359L26.1055 131.332H26.1523C26.3008 131.158 26.5104 131.013 26.7813 130.898C27.0521 130.781 27.349 130.723 27.6719 130.723C28.1563 130.723 28.5885 130.837 28.9688 131.066C29.349 131.293 29.6484 131.605 29.8672 132.004C30.0859 132.402 30.1953 132.858 30.1953 133.371C30.1953 133.9 30.0729 134.371 29.8281 134.785C29.5859 135.197 29.2487 135.521 28.8164 135.758C28.3867 135.992 27.8893 136.109 27.3242 136.109ZM34.4609 136.152C33.8177 136.152 33.2656 135.99 32.8047 135.664C32.3464 135.336 31.9935 134.863 31.7461 134.246C31.5013 133.626 31.3789 132.88 31.3789 132.008C31.3815 131.135 31.5052 130.393 31.75 129.781C31.9974 129.167 32.3503 128.698 32.8086 128.375C33.2695 128.052 33.8203 127.891 34.4609 127.891C35.1016 127.891 35.6523 128.052 36.1133 128.375C36.5742 128.698 36.9271 129.167 37.1719 129.781C37.4193 130.396 37.543 131.138 37.543 132.008C37.543 132.883 37.4193 133.63 37.1719 134.25C36.9271 134.867 36.5742 135.339 36.1133 135.664C35.6549 135.99 35.1042 136.152 34.4609 136.152ZM34.4609 134.93C34.9609 134.93 35.3555 134.684 35.6445 134.191C35.9362 133.697 36.082 132.969 36.082 132.008C36.082 131.372 36.0156 130.839 35.8828 130.406C35.75 129.974 35.5625 129.648 35.3203 129.43C35.0781 129.208 34.7917 129.098 34.4609 129.098C33.9635 129.098 33.5703 129.345 33.2813 129.84C32.9922 130.332 32.8464 131.055 32.8438 132.008C32.8411 132.646 32.9049 133.182 33.0352 133.617C33.168 134.052 33.3555 134.38 33.5977 134.602C33.8398 134.82 34.1276 134.93 34.4609 134.93Z" fill="#06A987"/>
<path d="M20.582 108.109C20.0195 108.109 19.5195 108.013 19.082 107.82C18.6471 107.628 18.3034 107.359 18.0508 107.016C17.7982 106.672 17.6641 106.275 17.6484 105.824H19.1172C19.1302 106.04 19.2018 106.229 19.332 106.391C19.4622 106.549 19.6354 106.673 19.8516 106.762C20.0677 106.85 20.3099 106.895 20.5781 106.895C20.8646 106.895 21.1185 106.845 21.3398 106.746C21.5612 106.645 21.7344 106.504 21.8594 106.324C21.9844 106.145 22.0456 105.937 22.043 105.703C22.0456 105.461 21.9831 105.247 21.8555 105.062C21.7279 104.878 21.543 104.733 21.3008 104.629C21.0612 104.525 20.7721 104.473 20.4336 104.473H19.7266V103.355H20.4336C20.7122 103.355 20.9557 103.307 21.1641 103.211C21.375 103.115 21.5404 102.979 21.6602 102.805C21.7799 102.628 21.8385 102.423 21.8359 102.191C21.8385 101.965 21.7878 101.768 21.6836 101.602C21.582 101.432 21.4375 101.301 21.25 101.207C21.0651 101.113 20.8477 101.066 20.5977 101.066C20.3529 101.066 20.1263 101.111 19.918 101.199C19.7096 101.288 19.5417 101.414 19.4141 101.578C19.2865 101.74 19.2188 101.932 19.2109 102.156H17.8164C17.8268 101.708 17.9557 101.315 18.2031 100.977C18.4531 100.635 18.7865 100.37 19.2031 100.18C19.6198 99.987 20.0872 99.8906 20.6055 99.8906C21.1393 99.8906 21.6029 99.9909 21.9961 100.191C22.3919 100.389 22.6979 100.656 22.9141 100.992C23.1302 101.328 23.2383 101.699 23.2383 102.105C23.2409 102.556 23.1081 102.934 22.8398 103.238C22.5742 103.543 22.2253 103.742 21.793 103.836V103.898C22.3555 103.977 22.7865 104.185 23.0859 104.523C23.388 104.859 23.5378 105.277 23.5352 105.777C23.5352 106.225 23.4076 106.626 23.1523 106.98C22.8997 107.332 22.5508 107.608 22.1055 107.809C21.6628 108.009 21.1549 108.109 20.582 108.109ZM27.833 108.152C27.1898 108.152 26.6377 107.99 26.1768 107.664C25.7184 107.336 25.3656 106.863 25.1182 106.246C24.8734 105.626 24.751 104.88 24.751 104.008C24.7536 103.135 24.8773 102.393 25.1221 101.781C25.3695 101.167 25.7223 100.698 26.1807 100.375C26.6416 100.052 27.1924 99.8906 27.833 99.8906C28.4736 99.8906 29.0244 100.052 29.4854 100.375C29.9463 100.698 30.2992 101.167 30.5439 101.781C30.7913 102.396 30.915 103.138 30.915 104.008C30.915 104.883 30.7913 105.63 30.5439 106.25C30.2992 106.867 29.9463 107.339 29.4854 107.664C29.027 107.99 28.4762 108.152 27.833 108.152ZM27.833 106.93C28.333 106.93 28.7275 106.684 29.0166 106.191C29.3083 105.697 29.4541 104.969 29.4541 104.008C29.4541 103.372 29.3877 102.839 29.2549 102.406C29.1221 101.974 28.9346 101.648 28.6924 101.43C28.4502 101.208 28.1637 101.098 27.833 101.098C27.3356 101.098 26.9424 101.345 26.6533 101.84C26.3643 102.332 26.2184 103.055 26.2158 104.008C26.2132 104.646 26.277 105.182 26.4072 105.617C26.54 106.052 26.7275 106.38 26.9697 106.602C27.2119 106.82 27.4997 106.93 27.833 106.93ZM35.1699 108.152C34.5267 108.152 33.9746 107.99 33.5137 107.664C33.0553 107.336 32.7025 106.863 32.4551 106.246C32.2103 105.626 32.0879 104.88 32.0879 104.008C32.0905 103.135 32.2142 102.393 32.459 101.781C32.7064 101.167 33.0592 100.698 33.5176 100.375C33.9785 100.052 34.5293 99.8906 35.1699 99.8906C35.8105 99.8906 36.3613 100.052 36.8223 100.375C37.2832 100.698 37.6361 101.167 37.8809 101.781C38.1283 102.396 38.252 103.138 38.252 104.008C38.252 104.883 38.1283 105.63 37.8809 106.25C37.6361 106.867 37.2832 107.339 36.8223 107.664C36.3639 107.99 35.8132 108.152 35.1699 108.152ZM35.1699 106.93C35.6699 106.93 36.0645 106.684 36.3535 106.191C36.6452 105.697 36.791 104.969 36.791 104.008C36.791 103.372 36.7246 102.839 36.5918 102.406C36.459 101.974 36.2715 101.648 36.0293 101.43C35.7871 101.208 35.5007 101.098 35.1699 101.098C34.6725 101.098 34.2793 101.345 33.9902 101.84C33.7012 102.332 33.5553 103.055 33.5527 104.008C33.5501 104.646 33.6139 105.182 33.7441 105.617C33.877 106.052 34.0645 106.38 34.3066 106.602C34.5488 106.82 34.8366 106.93 35.1699 106.93Z" fill="#06A987"/>
<path d="M20.582 82.1094C20.0195 82.1094 19.5195 82.013 19.082 81.8203C18.6471 81.6276 18.3034 81.3594 18.0508 81.0156C17.7982 80.6719 17.6641 80.2747 17.6484 79.8242H19.1172C19.1302 80.0404 19.2018 80.2292 19.332 80.3906C19.4622 80.5495 19.6354 80.6732 19.8516 80.7617C20.0677 80.8503 20.3099 80.8945 20.5781 80.8945C20.8646 80.8945 21.1185 80.8451 21.3398 80.7461C21.5612 80.6445 21.7344 80.5039 21.8594 80.3242C21.9844 80.1445 22.0456 79.9375 22.043 79.7031C22.0456 79.4609 21.9831 79.2474 21.8555 79.0625C21.7279 78.8776 21.543 78.7331 21.3008 78.6289C21.0612 78.5247 20.7721 78.4727 20.4336 78.4727H19.7266V77.3555H20.4336C20.7122 77.3555 20.9557 77.3073 21.1641 77.2109C21.375 77.1146 21.5404 76.9792 21.6602 76.8047C21.7799 76.6276 21.8385 76.4232 21.8359 76.1914C21.8385 75.9648 21.7878 75.7682 21.6836 75.6016C21.582 75.4323 21.4375 75.3008 21.25 75.207C21.0651 75.1133 20.8477 75.0664 20.5977 75.0664C20.3529 75.0664 20.1263 75.1107 19.918 75.1992C19.7096 75.2878 19.5417 75.4141 19.4141 75.5781C19.2865 75.7396 19.2188 75.9323 19.2109 76.1562H17.8164C17.8268 75.7083 17.9557 75.3151 18.2031 74.9766C18.4531 74.6354 18.7865 74.3698 19.2031 74.1797C19.6198 73.987 20.0872 73.8906 20.6055 73.8906C21.1393 73.8906 21.6029 73.9909 21.9961 74.1914C22.3919 74.3893 22.6979 74.6562 22.9141 74.9922C23.1302 75.3281 23.2383 75.6992 23.2383 76.1055C23.2409 76.556 23.1081 76.9336 22.8398 77.2383C22.5742 77.543 22.2253 77.7422 21.793 77.8359V77.8984C22.3555 77.9766 22.7865 78.1849 23.0859 78.5234C23.388 78.8594 23.5378 79.2773 23.5352 79.7773C23.5352 80.2253 23.4076 80.6263 23.1523 80.9805C22.8997 81.332 22.5508 81.6081 22.1055 81.8086C21.6628 82.0091 21.1549 82.1094 20.582 82.1094ZM27.6572 82.1094C27.1364 82.1094 26.6702 82.0117 26.2588 81.8164C25.8473 81.6185 25.5205 81.3477 25.2783 81.0039C25.0387 80.6602 24.9111 80.2669 24.8955 79.8242H26.3018C26.3278 80.1523 26.4697 80.4206 26.7275 80.6289C26.9854 80.8346 27.2952 80.9375 27.6572 80.9375C27.9411 80.9375 28.1937 80.8724 28.415 80.7422C28.6364 80.612 28.8109 80.431 28.9385 80.1992C29.0661 79.9674 29.1286 79.7031 29.126 79.4062C29.1286 79.1042 29.0648 78.8359 28.9346 78.6016C28.8044 78.3672 28.626 78.1836 28.3994 78.0508C28.1729 77.9154 27.9124 77.8477 27.6182 77.8477C27.3786 77.8451 27.1429 77.8893 26.9111 77.9805C26.6794 78.0716 26.4958 78.1914 26.3604 78.3398L25.0518 78.125L25.4697 74H30.1104V75.2109H26.6689L26.4385 77.332H26.4854C26.6338 77.1576 26.8434 77.013 27.1143 76.8984C27.3851 76.7812 27.682 76.7227 28.0049 76.7227C28.4893 76.7227 28.9215 76.8372 29.3018 77.0664C29.682 77.293 29.9814 77.6055 30.2002 78.0039C30.4189 78.4023 30.5283 78.8581 30.5283 79.3711C30.5283 79.8997 30.4059 80.3711 30.1611 80.7852C29.9189 81.1966 29.5817 81.5208 29.1494 81.7578C28.7197 81.9922 28.2223 82.1094 27.6572 82.1094ZM34.7939 82.1523C34.1507 82.1523 33.5986 81.9896 33.1377 81.6641C32.6794 81.3359 32.3265 80.8633 32.0791 80.2461C31.8343 79.6263 31.7119 78.8802 31.7119 78.0078C31.7145 77.1354 31.8382 76.3932 32.083 75.7812C32.3304 75.1667 32.6833 74.6979 33.1416 74.375C33.6025 74.0521 34.1533 73.8906 34.7939 73.8906C35.4346 73.8906 35.9854 74.0521 36.4463 74.375C36.9072 74.6979 37.2601 75.1667 37.5049 75.7812C37.7523 76.3958 37.876 77.138 37.876 78.0078C37.876 78.8828 37.7523 79.6302 37.5049 80.25C37.2601 80.8672 36.9072 81.3385 36.4463 81.6641C35.988 81.9896 35.4372 82.1523 34.7939 82.1523ZM34.7939 80.9297C35.2939 80.9297 35.6885 80.6836 35.9775 80.1914C36.2692 79.6966 36.415 78.9687 36.415 78.0078C36.415 77.3724 36.3486 76.8385 36.2158 76.4062C36.083 75.974 35.8955 75.6484 35.6533 75.4297C35.4111 75.2083 35.1247 75.0977 34.7939 75.0977C34.2965 75.0977 33.9033 75.3451 33.6143 75.8398C33.3252 76.332 33.1794 77.0547 33.1768 78.0078C33.1742 78.6458 33.238 79.1823 33.3682 79.6172C33.501 80.0521 33.6885 80.3802 33.9307 80.6016C34.1729 80.8203 34.4606 80.9297 34.7939 80.9297Z" fill="#06A987"/>
<path d="M17.5664 54.5156V53.3633L20.9609 48H21.9219V49.6406H21.3359L19.0508 53.2617V53.3242H23.7891V54.5156H17.5664ZM21.3828 56V54.1641L21.3984 53.6484V48H22.7656V56H21.3828ZM27.9941 56.1523C27.3509 56.1523 26.7988 55.9896 26.3379 55.6641C25.8796 55.3359 25.5267 54.8633 25.2793 54.2461C25.0345 53.6263 24.9121 52.8802 24.9121 52.0078C24.9147 51.1354 25.0384 50.3932 25.2832 49.7812C25.5306 49.1667 25.8835 48.6979 26.3418 48.375C26.8027 48.0521 27.3535 47.8906 27.9941 47.8906C28.6348 47.8906 29.1855 48.0521 29.6465 48.375C30.1074 48.6979 30.4603 49.1667 30.7051 49.7812C30.9525 50.3958 31.0762 51.138 31.0762 52.0078C31.0762 52.8828 30.9525 53.6302 30.7051 54.25C30.4603 54.8672 30.1074 55.3385 29.6465 55.6641C29.1882 55.9896 28.6374 56.1523 27.9941 56.1523ZM27.9941 54.9297C28.4941 54.9297 28.8887 54.6836 29.1777 54.1914C29.4694 53.6966 29.6152 52.9687 29.6152 52.0078C29.6152 51.3724 29.5488 50.8385 29.416 50.4062C29.2832 49.974 29.0957 49.6484 28.8535 49.4297C28.6113 49.2083 28.3249 49.0977 27.9941 49.0977C27.4967 49.0977 27.1035 49.3451 26.8145 49.8398C26.5254 50.332 26.3796 51.0547 26.377 52.0078C26.3743 52.6458 26.4382 53.1823 26.5684 53.6172C26.7012 54.0521 26.8887 54.3802 27.1309 54.6016C27.373 54.8203 27.6608 54.9297 27.9941 54.9297ZM35.3311 56.1523C34.6878 56.1523 34.1357 55.9896 33.6748 55.6641C33.2165 55.3359 32.8636 54.8633 32.6162 54.2461C32.3714 53.6263 32.249 52.8802 32.249 52.0078C32.2516 51.1354 32.3753 50.3932 32.6201 49.7812C32.8675 49.1667 33.2204 48.6979 33.6787 48.375C34.1396 48.0521 34.6904 47.8906 35.3311 47.8906C35.9717 47.8906 36.5225 48.0521 36.9834 48.375C37.4443 48.6979 37.7972 49.1667 38.042 49.7812C38.2894 50.3958 38.4131 51.138 38.4131 52.0078C38.4131 52.8828 38.2894 53.6302 38.042 54.25C37.7972 54.8672 37.4443 55.3385 36.9834 55.6641C36.5251 55.9896 35.9743 56.1523 35.3311 56.1523ZM35.3311 54.9297C35.8311 54.9297 36.2256 54.6836 36.5146 54.1914C36.8063 53.6966 36.9521 52.9687 36.9521 52.0078C36.9521 51.3724 36.8857 50.8385 36.7529 50.4062C36.6201 49.974 36.4326 49.6484 36.1904 49.4297C35.9482 49.2083 35.6618 49.0977 35.3311 49.0977C34.8337 49.0977 34.4404 49.3451 34.1514 49.8398C33.8623 50.332 33.7165 51.0547 33.7139 52.0078C33.7113 52.6458 33.7751 53.1823 33.9053 53.6172C34.0381 54.0521 34.2256 54.3802 34.4678 54.6016C34.71 54.8203 34.9977 54.9297 35.3311 54.9297Z" fill="#06A987"/>
<path d="M59.7109 113V111.953L62.4883 109.23C62.7539 108.962 62.9753 108.724 63.1523 108.516C63.3294 108.307 63.4622 108.105 63.5508 107.91C63.6393 107.715 63.6836 107.507 63.6836 107.285C63.6836 107.033 63.6263 106.816 63.5117 106.637C63.3971 106.454 63.2396 106.314 63.0391 106.215C62.8385 106.116 62.6107 106.066 62.3555 106.066C62.0924 106.066 61.862 106.121 61.6641 106.23C61.4661 106.337 61.3125 106.49 61.2031 106.688C61.0964 106.885 61.043 107.121 61.043 107.395H59.6641C59.6641 106.887 59.7799 106.445 60.0117 106.07C60.2435 105.695 60.5625 105.405 60.9688 105.199C61.3776 104.993 61.8464 104.891 62.375 104.891C62.9115 104.891 63.3828 104.991 63.7891 105.191C64.1953 105.392 64.5104 105.667 64.7344 106.016C64.9609 106.365 65.0742 106.763 65.0742 107.211C65.0742 107.51 65.0169 107.805 64.9023 108.094C64.7878 108.383 64.5859 108.703 64.2969 109.055C64.0104 109.406 63.6081 109.832 63.0898 110.332L61.7109 111.734V111.789H65.1953V113H59.7109ZM69.3867 113.109C68.806 113.109 68.2904 113.012 67.8398 112.816C67.3919 112.621 67.0404 112.354 66.7852 112.016C66.5326 111.674 66.4076 111.288 66.4102 110.855C66.4076 110.52 66.4805 110.211 66.6289 109.93C66.7773 109.648 66.9779 109.414 67.2305 109.227C67.4857 109.036 67.7695 108.915 68.082 108.863V108.809C67.6706 108.717 67.3372 108.508 67.082 108.18C66.8294 107.849 66.7044 107.467 66.707 107.035C66.7044 106.624 66.819 106.257 67.0508 105.934C67.2826 105.611 67.6003 105.357 68.0039 105.172C68.4076 104.984 68.8685 104.891 69.3867 104.891C69.8997 104.891 70.3568 104.984 70.7578 105.172C71.1615 105.357 71.4792 105.611 71.7109 105.934C71.9453 106.257 72.0625 106.624 72.0625 107.035C72.0625 107.467 71.9336 107.849 71.6758 108.18C71.4206 108.508 71.0911 108.717 70.6875 108.809V108.863C71 108.915 71.2813 109.036 71.5313 109.227C71.7839 109.414 71.9844 109.648 72.1328 109.93C72.2839 110.211 72.3594 110.52 72.3594 110.855C72.3594 111.288 72.2318 111.674 71.9766 112.016C71.7214 112.354 71.3698 112.621 70.9219 112.816C70.4766 113.012 69.9648 113.109 69.3867 113.109ZM69.3867 111.992C69.6862 111.992 69.9466 111.941 70.168 111.84C70.3893 111.736 70.5612 111.59 70.6836 111.402C70.806 111.215 70.8685 110.999 70.8711 110.754C70.8685 110.499 70.8021 110.273 70.6719 110.078C70.5443 109.88 70.3685 109.725 70.1445 109.613C69.9232 109.501 69.6706 109.445 69.3867 109.445C69.1003 109.445 68.8451 109.501 68.6211 109.613C68.3971 109.725 68.2201 109.88 68.0898 110.078C67.9622 110.273 67.8997 110.499 67.9023 110.754C67.8997 110.999 67.9596 111.215 68.082 111.402C68.2044 111.587 68.3763 111.732 68.5977 111.836C68.8216 111.94 69.0846 111.992 69.3867 111.992ZM69.3867 108.348C69.6315 108.348 69.8477 108.298 70.0352 108.199C70.2253 108.1 70.375 107.962 70.4844 107.785C70.5938 107.608 70.6497 107.404 70.6523 107.172C70.6497 106.943 70.5951 106.742 70.4883 106.57C70.3815 106.396 70.2331 106.262 70.043 106.168C69.8529 106.072 69.6341 106.023 69.3867 106.023C69.1341 106.023 68.9115 106.072 68.7188 106.168C68.5286 106.262 68.3802 106.396 68.2734 106.57C68.1693 106.742 68.1185 106.943 68.1211 107.172C68.1185 107.404 68.1706 107.608 68.2773 107.785C68.3867 107.96 68.5365 108.098 68.7266 108.199C68.9193 108.298 69.1393 108.348 69.3867 108.348ZM76.4873 113.109C75.9066 113.109 75.391 113.012 74.9404 112.816C74.4925 112.621 74.141 112.354 73.8857 112.016C73.6331 111.674 73.5081 111.288 73.5107 110.855C73.5081 110.52 73.5811 110.211 73.7295 109.93C73.8779 109.648 74.0785 109.414 74.3311 109.227C74.5863 109.036 74.8701 108.915 75.1826 108.863V108.809C74.7712 108.717 74.4378 108.508 74.1826 108.18C73.93 107.849 73.805 107.467 73.8076 107.035C73.805 106.624 73.9196 106.257 74.1514 105.934C74.3831 105.611 74.7008 105.357 75.1045 105.172C75.5081 104.984 75.9691 104.891 76.4873 104.891C77.0003 104.891 77.4574 104.984 77.8584 105.172C78.262 105.357 78.5798 105.611 78.8115 105.934C79.0459 106.257 79.1631 106.624 79.1631 107.035C79.1631 107.467 79.0342 107.849 78.7764 108.18C78.5212 108.508 78.1917 108.717 77.7881 108.809V108.863C78.1006 108.915 78.3818 109.036 78.6318 109.227C78.8844 109.414 79.085 109.648 79.2334 109.93C79.3844 110.211 79.46 110.52 79.46 110.855C79.46 111.288 79.3324 111.674 79.0771 112.016C78.8219 112.354 78.4704 112.621 78.0225 112.816C77.5771 113.012 77.0654 113.109 76.4873 113.109ZM76.4873 111.992C76.7868 111.992 77.0472 111.941 77.2686 111.84C77.4899 111.736 77.6618 111.59 77.7842 111.402C77.9066 111.215 77.9691 110.999 77.9717 110.754C77.9691 110.499 77.9027 110.273 77.7725 110.078C77.6449 109.88 77.4691 109.725 77.2451 109.613C77.0238 109.501 76.7712 109.445 76.4873 109.445C76.2008 109.445 75.9456 109.501 75.7217 109.613C75.4977 109.725 75.3206 109.88 75.1904 110.078C75.0628 110.273 75.0003 110.499 75.0029 110.754C75.0003 110.999 75.0602 111.215 75.1826 111.402C75.305 111.587 75.4769 111.732 75.6982 111.836C75.9222 111.94 76.1852 111.992 76.4873 111.992ZM76.4873 108.348C76.7321 108.348 76.9482 108.298 77.1357 108.199C77.3258 108.1 77.4756 107.962 77.585 107.785C77.6943 107.608 77.7503 107.404 77.7529 107.172C77.7503 106.943 77.6956 106.742 77.5889 106.57C77.4821 106.396 77.3337 106.262 77.1436 106.168C76.9535 106.072 76.7347 106.023 76.4873 106.023C76.2347 106.023 76.012 106.072 75.8193 106.168C75.6292 106.262 75.4808 106.396 75.374 106.57C75.2699 106.742 75.2191 106.943 75.2217 107.172C75.2191 107.404 75.2712 107.608 75.3779 107.785C75.4873 107.96 75.637 108.098 75.8271 108.199C76.0199 108.298 76.2399 108.348 76.4873 108.348Z" fill="#424242"/>
<path d="M102.582 100.109C102.02 100.109 101.52 100.013 101.082 99.8203C100.647 99.6276 100.303 99.3594 100.051 99.0156C99.7982 98.6719 99.6641 98.2747 99.6484 97.8242H101.117C101.13 98.0404 101.202 98.2292 101.332 98.3906C101.462 98.5495 101.635 98.6732 101.852 98.7617C102.068 98.8503 102.31 98.8945 102.578 98.8945C102.865 98.8945 103.118 98.8451 103.34 98.7461C103.561 98.6445 103.734 98.5039 103.859 98.3242C103.984 98.1445 104.046 97.9375 104.043 97.7031C104.046 97.4609 103.983 97.2474 103.855 97.0625C103.728 96.8776 103.543 96.7331 103.301 96.6289C103.061 96.5247 102.772 96.4727 102.434 96.4727H101.727V95.3555H102.434C102.712 95.3555 102.956 95.3073 103.164 95.2109C103.375 95.1146 103.54 94.9792 103.66 94.8047C103.78 94.6276 103.839 94.4232 103.836 94.1914C103.839 93.9648 103.788 93.7682 103.684 93.6016C103.582 93.4323 103.438 93.3008 103.25 93.207C103.065 93.1133 102.848 93.0664 102.598 93.0664C102.353 93.0664 102.126 93.1107 101.918 93.1992C101.71 93.2878 101.542 93.4141 101.414 93.5781C101.286 93.7396 101.219 93.9323 101.211 94.1562H99.8164C99.8268 93.7083 99.9557 93.3151 100.203 92.9766C100.453 92.6354 100.786 92.3698 101.203 92.1797C101.62 91.987 102.087 91.8906 102.605 91.8906C103.139 91.8906 103.603 91.9909 103.996 92.1914C104.392 92.3893 104.698 92.6562 104.914 92.9922C105.13 93.3281 105.238 93.6992 105.238 94.1055C105.241 94.556 105.108 94.9336 104.84 95.2383C104.574 95.543 104.225 95.7422 103.793 95.8359V95.8984C104.355 95.9766 104.786 96.1849 105.086 96.5234C105.388 96.8594 105.538 97.2773 105.535 97.7773C105.535 98.2253 105.408 98.6263 105.152 98.9805C104.9 99.332 104.551 99.6081 104.105 99.8086C103.663 100.009 103.155 100.109 102.582 100.109ZM109.833 100.152C109.19 100.152 108.638 99.9896 108.177 99.6641C107.718 99.3359 107.366 98.8633 107.118 98.2461C106.873 97.6263 106.751 96.8802 106.751 96.0078C106.754 95.1354 106.877 94.3932 107.122 93.7812C107.369 93.1667 107.722 92.6979 108.181 92.375C108.642 92.0521 109.192 91.8906 109.833 91.8906C110.474 91.8906 111.024 92.0521 111.485 92.375C111.946 92.6979 112.299 93.1667 112.544 93.7812C112.791 94.3958 112.915 95.138 112.915 96.0078C112.915 96.8828 112.791 97.6302 112.544 98.25C112.299 98.8672 111.946 99.3385 111.485 99.6641C111.027 99.9896 110.476 100.152 109.833 100.152ZM109.833 98.9297C110.333 98.9297 110.728 98.6836 111.017 98.1914C111.308 97.6966 111.454 96.9687 111.454 96.0078C111.454 95.3724 111.388 94.8385 111.255 94.4062C111.122 93.974 110.935 93.6484 110.692 93.4297C110.45 93.2083 110.164 93.0977 109.833 93.0977C109.336 93.0977 108.942 93.3451 108.653 93.8398C108.364 94.332 108.218 95.0547 108.216 96.0078C108.213 96.6458 108.277 97.1823 108.407 97.6172C108.54 98.0521 108.728 98.3802 108.97 98.6016C109.212 98.8203 109.5 98.9297 109.833 98.9297ZM117.057 100.109C116.476 100.109 115.96 100.012 115.51 99.8164C115.062 99.6211 114.71 99.3542 114.455 99.0156C114.202 98.6745 114.077 98.2878 114.08 97.8555C114.077 97.5195 114.15 97.2109 114.299 96.9297C114.447 96.6484 114.648 96.4141 114.9 96.2266C115.156 96.0365 115.439 95.9154 115.752 95.8633V95.8086C115.34 95.7174 115.007 95.5078 114.752 95.1797C114.499 94.849 114.374 94.4674 114.377 94.0352C114.374 93.6237 114.489 93.2565 114.721 92.9336C114.952 92.6107 115.27 92.3568 115.674 92.1719C116.077 91.9844 116.538 91.8906 117.057 91.8906C117.57 91.8906 118.027 91.9844 118.428 92.1719C118.831 92.3568 119.149 92.6107 119.381 92.9336C119.615 93.2565 119.732 93.6237 119.732 94.0352C119.732 94.4674 119.604 94.849 119.346 95.1797C119.09 95.5078 118.761 95.7174 118.357 95.8086V95.8633C118.67 95.9154 118.951 96.0365 119.201 96.2266C119.454 96.4141 119.654 96.6484 119.803 96.9297C119.954 97.2109 120.029 97.5195 120.029 97.8555C120.029 98.2878 119.902 98.6745 119.646 99.0156C119.391 99.3542 119.04 99.6211 118.592 99.8164C118.146 100.012 117.635 100.109 117.057 100.109ZM117.057 98.9922C117.356 98.9922 117.617 98.9414 117.838 98.8398C118.059 98.7357 118.231 98.5898 118.354 98.4023C118.476 98.2148 118.538 97.9987 118.541 97.7539C118.538 97.4987 118.472 97.2734 118.342 97.0781C118.214 96.8802 118.038 96.7253 117.814 96.6133C117.593 96.5013 117.34 96.4453 117.057 96.4453C116.77 96.4453 116.515 96.5013 116.291 96.6133C116.067 96.7253 115.89 96.8802 115.76 97.0781C115.632 97.2734 115.57 97.4987 115.572 97.7539C115.57 97.9987 115.63 98.2148 115.752 98.4023C115.874 98.5872 116.046 98.7318 116.268 98.8359C116.492 98.9401 116.755 98.9922 117.057 98.9922ZM117.057 95.3477C117.301 95.3477 117.518 95.2982 117.705 95.1992C117.895 95.1003 118.045 94.9622 118.154 94.7852C118.264 94.6081 118.32 94.4036 118.322 94.1719C118.32 93.9427 118.265 93.7422 118.158 93.5703C118.051 93.3958 117.903 93.2617 117.713 93.168C117.523 93.0716 117.304 93.0234 117.057 93.0234C116.804 93.0234 116.581 93.0716 116.389 93.168C116.199 93.2617 116.05 93.3958 115.943 93.5703C115.839 93.7422 115.788 93.9427 115.791 94.1719C115.788 94.4036 115.84 94.6081 115.947 94.7852C116.057 94.9596 116.206 95.0977 116.396 95.1992C116.589 95.2982 116.809 95.3477 117.057 95.3477Z" fill="#424242"/>
<path d="M142.582 94.1094C142.02 94.1094 141.52 94.013 141.082 93.8203C140.647 93.6276 140.303 93.3594 140.051 93.0156C139.798 92.6719 139.664 92.2747 139.648 91.8242H141.117C141.13 92.0404 141.202 92.2292 141.332 92.3906C141.462 92.5495 141.635 92.6732 141.852 92.7617C142.068 92.8503 142.31 92.8945 142.578 92.8945C142.865 92.8945 143.118 92.8451 143.34 92.7461C143.561 92.6445 143.734 92.5039 143.859 92.3242C143.984 92.1445 144.046 91.9375 144.043 91.7031C144.046 91.4609 143.983 91.2474 143.855 91.0625C143.728 90.8776 143.543 90.7331 143.301 90.6289C143.061 90.5247 142.772 90.4727 142.434 90.4727H141.727V89.3555H142.434C142.712 89.3555 142.956 89.3073 143.164 89.2109C143.375 89.1146 143.54 88.9792 143.66 88.8047C143.78 88.6276 143.839 88.4232 143.836 88.1914C143.839 87.9648 143.788 87.7682 143.684 87.6016C143.582 87.4323 143.438 87.3008 143.25 87.207C143.065 87.1133 142.848 87.0664 142.598 87.0664C142.353 87.0664 142.126 87.1107 141.918 87.1992C141.71 87.2878 141.542 87.4141 141.414 87.5781C141.286 87.7396 141.219 87.9323 141.211 88.1562H139.816C139.827 87.7083 139.956 87.3151 140.203 86.9766C140.453 86.6354 140.786 86.3698 141.203 86.1797C141.62 85.987 142.087 85.8906 142.605 85.8906C143.139 85.8906 143.603 85.9909 143.996 86.1914C144.392 86.3893 144.698 86.6562 144.914 86.9922C145.13 87.3281 145.238 87.6992 145.238 88.1055C145.241 88.556 145.108 88.9336 144.84 89.2383C144.574 89.543 144.225 89.7422 143.793 89.8359V89.8984C144.355 89.9766 144.786 90.1849 145.086 90.5234C145.388 90.8594 145.538 91.2773 145.535 91.7773C145.535 92.2253 145.408 92.6263 145.152 92.9805C144.9 93.332 144.551 93.6081 144.105 93.8086C143.663 94.0091 143.155 94.1094 142.582 94.1094ZM150.13 86V94H148.681V87.4102H148.634L146.763 88.6055V87.2773L148.751 86H150.13ZM155.005 94.1094C154.424 94.1094 153.909 94.0117 153.458 93.8164C153.01 93.6211 152.659 93.3542 152.403 93.0156C152.151 92.6745 152.026 92.2878 152.028 91.8555C152.026 91.5195 152.099 91.2109 152.247 90.9297C152.396 90.6484 152.596 90.4141 152.849 90.2266C153.104 90.0365 153.388 89.9154 153.7 89.8633V89.8086C153.289 89.7174 152.955 89.5078 152.7 89.1797C152.448 88.849 152.323 88.4674 152.325 88.0352C152.323 87.6237 152.437 87.2565 152.669 86.9336C152.901 86.6107 153.218 86.3568 153.622 86.1719C154.026 85.9844 154.487 85.8906 155.005 85.8906C155.518 85.8906 155.975 85.9844 156.376 86.1719C156.78 86.3568 157.097 86.6107 157.329 86.9336C157.563 87.2565 157.681 87.6237 157.681 88.0352C157.681 88.4674 157.552 88.849 157.294 89.1797C157.039 89.5078 156.709 89.7174 156.306 89.8086V89.8633C156.618 89.9154 156.899 90.0365 157.149 90.2266C157.402 90.4141 157.603 90.6484 157.751 90.9297C157.902 91.2109 157.978 91.5195 157.978 91.8555C157.978 92.2878 157.85 92.6745 157.595 93.0156C157.34 93.3542 156.988 93.6211 156.54 93.8164C156.095 94.0117 155.583 94.1094 155.005 94.1094ZM155.005 92.9922C155.304 92.9922 155.565 92.9414 155.786 92.8398C156.007 92.7357 156.179 92.5898 156.302 92.4023C156.424 92.2148 156.487 91.9987 156.489 91.7539C156.487 91.4987 156.42 91.2734 156.29 91.0781C156.162 90.8802 155.987 90.7253 155.763 90.6133C155.541 90.5013 155.289 90.4453 155.005 90.4453C154.718 90.4453 154.463 90.5013 154.239 90.6133C154.015 90.7253 153.838 90.8802 153.708 91.0781C153.58 91.2734 153.518 91.4987 153.521 91.7539C153.518 91.9987 153.578 92.2148 153.7 92.4023C153.823 92.5872 153.994 92.7318 154.216 92.8359C154.44 92.9401 154.703 92.9922 155.005 92.9922ZM155.005 89.3477C155.25 89.3477 155.466 89.2982 155.653 89.1992C155.843 89.1003 155.993 88.9622 156.103 88.7852C156.212 88.6081 156.268 88.4036 156.271 88.1719C156.268 87.9427 156.213 87.7422 156.106 87.5703C156 87.3958 155.851 87.2617 155.661 87.168C155.471 87.0716 155.252 87.0234 155.005 87.0234C154.752 87.0234 154.53 87.0716 154.337 87.168C154.147 87.2617 153.998 87.3958 153.892 87.5703C153.787 87.7422 153.737 87.9427 153.739 88.1719C153.737 88.4036 153.789 88.6081 153.896 88.7852C154.005 88.9596 154.155 89.0977 154.345 89.1992C154.537 89.2982 154.757 89.3477 155.005 89.3477Z" fill="#424242"/>
<path d="M183.582 86.1094C183.02 86.1094 182.52 86.013 182.082 85.8203C181.647 85.6276 181.303 85.3594 181.051 85.0156C180.798 84.6719 180.664 84.2747 180.648 83.8242H182.117C182.13 84.0404 182.202 84.2292 182.332 84.3906C182.462 84.5495 182.635 84.6732 182.852 84.7617C183.068 84.8503 183.31 84.8945 183.578 84.8945C183.865 84.8945 184.118 84.8451 184.34 84.7461C184.561 84.6445 184.734 84.5039 184.859 84.3242C184.984 84.1445 185.046 83.9375 185.043 83.7031C185.046 83.4609 184.983 83.2474 184.855 83.0625C184.728 82.8776 184.543 82.7331 184.301 82.6289C184.061 82.5247 183.772 82.4727 183.434 82.4727H182.727V81.3555H183.434C183.712 81.3555 183.956 81.3073 184.164 81.2109C184.375 81.1146 184.54 80.9792 184.66 80.8047C184.78 80.6276 184.839 80.4232 184.836 80.1914C184.839 79.9648 184.788 79.7682 184.684 79.6016C184.582 79.4323 184.438 79.3008 184.25 79.207C184.065 79.1133 183.848 79.0664 183.598 79.0664C183.353 79.0664 183.126 79.1107 182.918 79.1992C182.71 79.2878 182.542 79.4141 182.414 79.5781C182.286 79.7396 182.219 79.9323 182.211 80.1562H180.816C180.827 79.7083 180.956 79.3151 181.203 78.9766C181.453 78.6354 181.786 78.3698 182.203 78.1797C182.62 77.987 183.087 77.8906 183.605 77.8906C184.139 77.8906 184.603 77.9909 184.996 78.1914C185.392 78.3893 185.698 78.6562 185.914 78.9922C186.13 79.3281 186.238 79.6992 186.238 80.1055C186.241 80.556 186.108 80.9336 185.84 81.2383C185.574 81.543 185.225 81.7422 184.793 81.8359V81.8984C185.355 81.9766 185.786 82.1849 186.086 82.5234C186.388 82.8594 186.538 83.2773 186.535 83.7773C186.535 84.2253 186.408 84.6263 186.152 84.9805C185.9 85.332 185.551 85.6081 185.105 85.8086C184.663 86.0091 184.155 86.1094 183.582 86.1094ZM190.747 86.1094C190.185 86.1094 189.685 86.013 189.247 85.8203C188.812 85.6276 188.468 85.3594 188.216 85.0156C187.963 84.6719 187.829 84.2747 187.813 83.8242H189.282C189.295 84.0404 189.367 84.2292 189.497 84.3906C189.627 84.5495 189.8 84.6732 190.017 84.7617C190.233 84.8503 190.475 84.8945 190.743 84.8945C191.03 84.8945 191.284 84.8451 191.505 84.7461C191.726 84.6445 191.899 84.5039 192.024 84.3242C192.149 84.1445 192.211 83.9375 192.208 83.7031C192.211 83.4609 192.148 83.2474 192.021 83.0625C191.893 82.8776 191.708 82.7331 191.466 82.6289C191.226 82.5247 190.937 82.4727 190.599 82.4727H189.892V81.3555H190.599C190.877 81.3555 191.121 81.3073 191.329 81.2109C191.54 81.1146 191.705 80.9792 191.825 80.8047C191.945 80.6276 192.004 80.4232 192.001 80.1914C192.004 79.9648 191.953 79.7682 191.849 79.6016C191.747 79.4323 191.603 79.3008 191.415 79.207C191.23 79.1133 191.013 79.0664 190.763 79.0664C190.518 79.0664 190.291 79.1107 190.083 79.1992C189.875 79.2878 189.707 79.4141 189.579 79.5781C189.451 79.7396 189.384 79.9323 189.376 80.1562H187.981C187.992 79.7083 188.121 79.3151 188.368 78.9766C188.618 78.6354 188.951 78.3698 189.368 78.1797C189.785 77.987 190.252 77.8906 190.771 77.8906C191.304 77.8906 191.768 77.9909 192.161 78.1914C192.557 78.3893 192.863 78.6562 193.079 78.9922C193.295 79.3281 193.403 79.6992 193.403 80.1055C193.406 80.556 193.273 80.9336 193.005 81.2383C192.739 81.543 192.39 81.7422 191.958 81.8359V81.8984C192.521 81.9766 192.951 82.1849 193.251 82.5234C193.553 82.8594 193.703 83.2773 193.7 83.7773C193.7 84.2253 193.573 84.6263 193.317 84.9805C193.065 85.332 192.716 85.6081 192.271 85.8086C191.828 86.0091 191.32 86.1094 190.747 86.1094ZM195.041 86V84.9531L197.818 82.2305C198.084 81.9622 198.305 81.724 198.482 81.5156C198.66 81.3073 198.792 81.1055 198.881 80.9102C198.969 80.7148 199.014 80.5065 199.014 80.2852C199.014 80.0326 198.956 79.8164 198.842 79.6367C198.727 79.4544 198.57 79.3138 198.369 79.2148C198.169 79.1159 197.941 79.0664 197.686 79.0664C197.423 79.0664 197.192 79.1211 196.994 79.2305C196.796 79.3372 196.643 79.4896 196.533 79.6875C196.426 79.8854 196.373 80.1211 196.373 80.3945H194.994C194.994 79.8867 195.11 79.4453 195.342 79.0703C195.574 78.6953 195.893 78.4049 196.299 78.1992C196.708 77.9935 197.176 77.8906 197.705 77.8906C198.242 77.8906 198.713 77.9909 199.119 78.1914C199.525 78.3919 199.84 78.6667 200.064 79.0156C200.291 79.3646 200.404 79.763 200.404 80.2109C200.404 80.5104 200.347 80.8047 200.232 81.0937C200.118 81.3828 199.916 81.7031 199.627 82.0547C199.34 82.4062 198.938 82.832 198.42 83.332L197.041 84.7344V84.7891H200.525V86H195.041Z" fill="#424242"/>
<path d="M222.582 82.1094C222.02 82.1094 221.52 82.013 221.082 81.8203C220.647 81.6276 220.303 81.3594 220.051 81.0156C219.798 80.6719 219.664 80.2747 219.648 79.8242H221.117C221.13 80.0404 221.202 80.2292 221.332 80.3906C221.462 80.5495 221.635 80.6732 221.852 80.7617C222.068 80.8503 222.31 80.8945 222.578 80.8945C222.865 80.8945 223.118 80.8451 223.34 80.7461C223.561 80.6445 223.734 80.5039 223.859 80.3242C223.984 80.1445 224.046 79.9375 224.043 79.7031C224.046 79.4609 223.983 79.2474 223.855 79.0625C223.728 78.8776 223.543 78.7331 223.301 78.6289C223.061 78.5247 222.772 78.4727 222.434 78.4727H221.727V77.3555H222.434C222.712 77.3555 222.956 77.3073 223.164 77.2109C223.375 77.1146 223.54 76.9792 223.66 76.8047C223.78 76.6276 223.839 76.4232 223.836 76.1914C223.839 75.9648 223.788 75.7682 223.684 75.6016C223.582 75.4323 223.438 75.3008 223.25 75.207C223.065 75.1133 222.848 75.0664 222.598 75.0664C222.353 75.0664 222.126 75.1107 221.918 75.1992C221.71 75.2878 221.542 75.4141 221.414 75.5781C221.286 75.7396 221.219 75.9323 221.211 76.1562H219.816C219.827 75.7083 219.956 75.3151 220.203 74.9766C220.453 74.6354 220.786 74.3698 221.203 74.1797C221.62 73.987 222.087 73.8906 222.605 73.8906C223.139 73.8906 223.603 73.9909 223.996 74.1914C224.392 74.3893 224.698 74.6562 224.914 74.9922C225.13 75.3281 225.238 75.6992 225.238 76.1055C225.241 76.556 225.108 76.9336 224.84 77.2383C224.574 77.543 224.225 77.7422 223.793 77.8359V77.8984C224.355 77.9766 224.786 78.1849 225.086 78.5234C225.388 78.8594 225.538 79.2773 225.535 79.7773C225.535 80.2253 225.408 80.6263 225.152 80.9805C224.9 81.332 224.551 81.6081 224.105 81.8086C223.663 82.0091 223.155 82.1094 222.582 82.1094ZM226.731 80.5156V79.3633L230.126 74H231.087V75.6406H230.501L228.216 79.2617V79.3242H232.954V80.5156H226.731ZM230.548 82V80.1641L230.563 79.6484V74H231.931V82H230.548ZM237.132 82.1094C236.749 82.1068 236.375 82.0404 236.011 81.9102C235.646 81.7773 235.318 81.5625 235.026 81.2656C234.735 80.9661 234.503 80.569 234.331 80.0742C234.159 79.5768 234.075 78.9609 234.077 78.2266C234.077 77.5417 234.15 76.931 234.296 76.3945C234.442 75.8581 234.651 75.4049 234.925 75.0352C235.198 74.6628 235.528 74.3789 235.913 74.1836C236.301 73.9883 236.735 73.8906 237.214 73.8906C237.716 73.8906 238.162 73.9896 238.55 74.1875C238.94 74.3854 239.256 74.6562 239.495 75C239.735 75.3411 239.883 75.7266 239.94 76.1562H238.515C238.442 75.849 238.292 75.6042 238.065 75.4219C237.841 75.237 237.558 75.1445 237.214 75.1445C236.659 75.1445 236.232 75.3854 235.933 75.8672C235.636 76.349 235.486 77.0104 235.483 77.8516H235.538C235.666 77.6224 235.831 77.4258 236.034 77.2617C236.237 77.0977 236.466 76.9714 236.722 76.8828C236.979 76.7917 237.252 76.7461 237.538 76.7461C238.007 76.7461 238.427 76.8581 238.8 77.082C239.175 77.306 239.472 77.6146 239.69 78.0078C239.909 78.3984 240.017 78.8464 240.015 79.3516C240.017 79.8776 239.897 80.3503 239.655 80.7695C239.413 81.1862 239.076 81.5143 238.644 81.7539C238.211 81.9935 237.707 82.112 237.132 82.1094ZM237.124 80.9375C237.408 80.9375 237.662 80.8685 237.886 80.7305C238.11 80.5924 238.287 80.4062 238.417 80.1719C238.547 79.9375 238.611 79.6745 238.608 79.3828C238.611 79.0964 238.549 78.8372 238.421 78.6055C238.296 78.3737 238.123 78.1901 237.901 78.0547C237.68 77.9193 237.427 77.8516 237.144 77.8516C236.933 77.8516 236.736 77.8919 236.554 77.9727C236.371 78.0534 236.213 78.1654 236.077 78.3086C235.942 78.4492 235.835 78.6133 235.757 78.8008C235.681 78.9857 235.642 79.1836 235.64 79.3945C235.642 79.6732 235.707 79.9297 235.835 80.1641C235.963 80.3984 236.138 80.5859 236.362 80.7266C236.586 80.8672 236.84 80.9375 237.124 80.9375Z" fill="#424242"/>
<path d="M262.582 72.1094C262.02 72.1094 261.52 72.013 261.082 71.8203C260.647 71.6276 260.303 71.3594 260.051 71.0156C259.798 70.6719 259.664 70.2747 259.648 69.8242H261.117C261.13 70.0404 261.202 70.2292 261.332 70.3906C261.462 70.5495 261.635 70.6732 261.852 70.7617C262.068 70.8503 262.31 70.8945 262.578 70.8945C262.865 70.8945 263.118 70.8451 263.34 70.7461C263.561 70.6445 263.734 70.5039 263.859 70.3242C263.984 70.1445 264.046 69.9375 264.043 69.7031C264.046 69.4609 263.983 69.2474 263.855 69.0625C263.728 68.8776 263.543 68.7331 263.301 68.6289C263.061 68.5247 262.772 68.4727 262.434 68.4727H261.727V67.3555H262.434C262.712 67.3555 262.956 67.3073 263.164 67.2109C263.375 67.1146 263.54 66.9792 263.66 66.8047C263.78 66.6276 263.839 66.4232 263.836 66.1914C263.839 65.9648 263.788 65.7682 263.684 65.6016C263.582 65.4323 263.438 65.3008 263.25 65.207C263.065 65.1133 262.848 65.0664 262.598 65.0664C262.353 65.0664 262.126 65.1107 261.918 65.1992C261.71 65.2878 261.542 65.4141 261.414 65.5781C261.286 65.7396 261.219 65.9323 261.211 66.1562H259.816C259.827 65.7083 259.956 65.3151 260.203 64.9766C260.453 64.6354 260.786 64.3698 261.203 64.1797C261.62 63.987 262.087 63.8906 262.605 63.8906C263.139 63.8906 263.603 63.9909 263.996 64.1914C264.392 64.3893 264.698 64.6562 264.914 64.9922C265.13 65.3281 265.238 65.6992 265.238 66.1055C265.241 66.556 265.108 66.9336 264.84 67.2383C264.574 67.543 264.225 67.7422 263.793 67.8359V67.8984C264.355 67.9766 264.786 68.1849 265.086 68.5234C265.388 68.8594 265.538 69.2773 265.535 69.7773C265.535 70.2253 265.408 70.6263 265.152 70.9805C264.9 71.332 264.551 71.6081 264.105 71.8086C263.663 72.0091 263.155 72.1094 262.582 72.1094ZM269.806 72.1094C269.423 72.1068 269.049 72.0404 268.685 71.9102C268.32 71.7773 267.992 71.5625 267.7 71.2656C267.409 70.9661 267.177 70.569 267.005 70.0742C266.833 69.5768 266.748 68.9609 266.751 68.2266C266.751 67.5417 266.824 66.931 266.97 66.3945C267.116 65.8581 267.325 65.4049 267.599 65.0352C267.872 64.6628 268.201 64.3789 268.587 64.1836C268.975 63.9883 269.409 63.8906 269.888 63.8906C270.39 63.8906 270.836 63.9896 271.224 64.1875C271.614 64.3854 271.929 64.6562 272.169 65C272.409 65.3411 272.557 65.7266 272.614 66.1562H271.188C271.116 65.849 270.966 65.6042 270.739 65.4219C270.515 65.237 270.231 65.1445 269.888 65.1445C269.333 65.1445 268.906 65.3854 268.606 65.8672C268.31 66.349 268.16 67.0104 268.157 67.8516H268.212C268.34 67.6224 268.505 67.4258 268.708 67.2617C268.911 67.0977 269.14 66.9714 269.396 66.8828C269.653 66.7917 269.925 66.7461 270.212 66.7461C270.681 66.7461 271.101 66.8581 271.474 67.082C271.849 67.306 272.146 67.6146 272.364 68.0078C272.583 68.3984 272.691 68.8464 272.688 69.3516C272.691 69.8776 272.571 70.3503 272.329 70.7695C272.087 71.1862 271.75 71.5143 271.317 71.7539C270.885 71.9935 270.381 72.112 269.806 72.1094ZM269.798 70.9375C270.082 70.9375 270.336 70.8685 270.56 70.7305C270.784 70.5924 270.961 70.4062 271.091 70.1719C271.221 69.9375 271.285 69.6745 271.282 69.3828C271.285 69.0964 271.222 68.8372 271.095 68.6055C270.97 68.3737 270.797 68.1901 270.575 68.0547C270.354 67.9193 270.101 67.8516 269.817 67.8516C269.606 67.8516 269.41 67.8919 269.228 67.9727C269.045 68.0534 268.886 68.1654 268.751 68.3086C268.616 68.4492 268.509 68.6133 268.431 68.8008C268.355 68.9857 268.316 69.1836 268.313 69.3945C268.316 69.6732 268.381 69.9297 268.509 70.1641C268.636 70.3984 268.812 70.5859 269.036 70.7266C269.26 70.8672 269.514 70.9375 269.798 70.9375ZM276.79 72.1094C276.269 72.1094 275.803 72.0117 275.392 71.8164C274.98 71.6185 274.653 71.3477 274.411 71.0039C274.172 70.6602 274.044 70.2669 274.028 69.8242H275.435C275.461 70.1523 275.603 70.4206 275.86 70.6289C276.118 70.8346 276.428 70.9375 276.79 70.9375C277.074 70.9375 277.326 70.8724 277.548 70.7422C277.769 70.612 277.944 70.431 278.071 70.1992C278.199 69.9674 278.261 69.7031 278.259 69.4062C278.261 69.1042 278.198 68.8359 278.067 68.6016C277.937 68.3672 277.759 68.1836 277.532 68.0508C277.306 67.9154 277.045 67.8477 276.751 67.8477C276.511 67.8451 276.276 67.8893 276.044 67.9805C275.812 68.0716 275.629 68.1914 275.493 68.3398L274.185 68.125L274.603 64H279.243V65.2109H275.802L275.571 67.332H275.618C275.767 67.1576 275.976 67.013 276.247 66.8984C276.518 66.7812 276.815 66.7227 277.138 66.7227C277.622 66.7227 278.054 66.8372 278.435 67.0664C278.815 67.293 279.114 67.6055 279.333 68.0039C279.552 68.4023 279.661 68.8581 279.661 69.3711C279.661 69.8997 279.539 70.3711 279.294 70.7852C279.052 71.1966 278.715 71.5208 278.282 71.7578C277.853 71.9922 277.355 72.1094 276.79 72.1094Z" fill="#424242"/>
<path d="M302.582 65.1094C302.02 65.1094 301.52 65.013 301.082 64.8203C300.647 64.6276 300.303 64.3594 300.051 64.0156C299.798 63.6719 299.664 63.2747 299.648 62.8242H301.117C301.13 63.0404 301.202 63.2292 301.332 63.3906C301.462 63.5495 301.635 63.6732 301.852 63.7617C302.068 63.8503 302.31 63.8945 302.578 63.8945C302.865 63.8945 303.118 63.8451 303.34 63.7461C303.561 63.6445 303.734 63.5039 303.859 63.3242C303.984 63.1445 304.046 62.9375 304.043 62.7031C304.046 62.4609 303.983 62.2474 303.855 62.0625C303.728 61.8776 303.543 61.7331 303.301 61.6289C303.061 61.5247 302.772 61.4727 302.434 61.4727H301.727V60.3555H302.434C302.712 60.3555 302.956 60.3073 303.164 60.2109C303.375 60.1146 303.54 59.9792 303.66 59.8047C303.78 59.6276 303.839 59.4232 303.836 59.1914C303.839 58.9648 303.788 58.7682 303.684 58.6016C303.582 58.4323 303.438 58.3008 303.25 58.207C303.065 58.1133 302.848 58.0664 302.598 58.0664C302.353 58.0664 302.126 58.1107 301.918 58.1992C301.71 58.2878 301.542 58.4141 301.414 58.5781C301.286 58.7396 301.219 58.9323 301.211 59.1562H299.816C299.827 58.7083 299.956 58.3151 300.203 57.9766C300.453 57.6354 300.786 57.3698 301.203 57.1797C301.62 56.987 302.087 56.8906 302.605 56.8906C303.139 56.8906 303.603 56.9909 303.996 57.1914C304.392 57.3893 304.698 57.6562 304.914 57.9922C305.13 58.3281 305.238 58.6992 305.238 59.1055C305.241 59.556 305.108 59.9336 304.84 60.2383C304.574 60.543 304.225 60.7422 303.793 60.8359V60.8984C304.355 60.9766 304.786 61.1849 305.086 61.5234C305.388 61.8594 305.538 62.2773 305.535 62.7773C305.535 63.2253 305.408 63.6263 305.152 63.9805C304.9 64.332 304.551 64.6081 304.105 64.8086C303.663 65.0091 303.155 65.1094 302.582 65.1094ZM309.72 65.1094C309.139 65.1094 308.623 65.0117 308.173 64.8164C307.725 64.6211 307.373 64.3542 307.118 64.0156C306.866 63.6745 306.741 63.2878 306.743 62.8555C306.741 62.5195 306.813 62.2109 306.962 61.9297C307.11 61.6484 307.311 61.4141 307.563 61.2266C307.819 61.0365 308.103 60.9154 308.415 60.8633V60.8086C308.004 60.7174 307.67 60.5078 307.415 60.1797C307.162 59.849 307.037 59.4674 307.04 59.0352C307.037 58.6237 307.152 58.2565 307.384 57.9336C307.616 57.6107 307.933 57.3568 308.337 57.1719C308.741 56.9844 309.201 56.8906 309.72 56.8906C310.233 56.8906 310.69 56.9844 311.091 57.1719C311.494 57.3568 311.812 57.6107 312.044 57.9336C312.278 58.2565 312.396 58.6237 312.396 59.0352C312.396 59.4674 312.267 59.849 312.009 60.1797C311.754 60.5078 311.424 60.7174 311.021 60.8086V60.8633C311.333 60.9154 311.614 61.0365 311.864 61.2266C312.117 61.4141 312.317 61.6484 312.466 61.9297C312.617 62.2109 312.692 62.5195 312.692 62.8555C312.692 63.2878 312.565 63.6745 312.31 64.0156C312.054 64.3542 311.703 64.6211 311.255 64.8164C310.81 65.0117 310.298 65.1094 309.72 65.1094ZM309.72 63.9922C310.019 63.9922 310.28 63.9414 310.501 63.8398C310.722 63.7357 310.894 63.5898 311.017 63.4023C311.139 63.2148 311.201 62.9987 311.204 62.7539C311.201 62.4987 311.135 62.2734 311.005 62.0781C310.877 61.8802 310.701 61.7253 310.478 61.6133C310.256 61.5013 310.004 61.4453 309.72 61.4453C309.433 61.4453 309.178 61.5013 308.954 61.6133C308.73 61.7253 308.553 61.8802 308.423 62.0781C308.295 62.2734 308.233 62.4987 308.235 62.7539C308.233 62.9987 308.293 63.2148 308.415 63.4023C308.537 63.5872 308.709 63.7318 308.931 63.8359C309.155 63.9401 309.418 63.9922 309.72 63.9922ZM309.72 60.3477C309.965 60.3477 310.181 60.2982 310.368 60.1992C310.558 60.1003 310.708 59.9622 310.817 59.7852C310.927 59.6081 310.983 59.4036 310.985 59.1719C310.983 58.9427 310.928 58.7422 310.821 58.5703C310.715 58.3958 310.566 58.2617 310.376 58.168C310.186 58.0716 309.967 58.0234 309.72 58.0234C309.467 58.0234 309.244 58.0716 309.052 58.168C308.862 58.2617 308.713 58.3958 308.606 58.5703C308.502 58.7422 308.451 58.9427 308.454 59.1719C308.451 59.4036 308.504 59.6081 308.61 59.7852C308.72 59.9596 308.869 60.0977 309.06 60.1992C309.252 60.2982 309.472 60.3477 309.72 60.3477ZM313.977 65V63.9531L316.754 61.2305C317.02 60.9622 317.241 60.724 317.418 60.5156C317.595 60.3073 317.728 60.1055 317.816 59.9102C317.905 59.7148 317.949 59.5065 317.949 59.2852C317.949 59.0326 317.892 58.8164 317.777 58.6367C317.663 58.4544 317.505 58.3138 317.305 58.2148C317.104 58.1159 316.876 58.0664 316.621 58.0664C316.358 58.0664 316.128 58.1211 315.93 58.2305C315.732 58.3372 315.578 58.4896 315.469 58.6875C315.362 58.8854 315.309 59.1211 315.309 59.3945H313.93C313.93 58.8867 314.046 58.4453 314.277 58.0703C314.509 57.6953 314.828 57.4049 315.234 57.1992C315.643 56.9935 316.112 56.8906 316.641 56.8906C317.177 56.8906 317.648 56.9909 318.055 57.1914C318.461 57.3919 318.776 57.6667 319 58.0156C319.227 58.3646 319.34 58.763 319.34 59.2109C319.34 59.5104 319.283 59.8047 319.168 60.0937C319.053 60.3828 318.852 60.7031 318.563 61.0547C318.276 61.4062 317.874 61.832 317.355 62.332L315.977 63.7344V63.7891H319.461V65H313.977Z" fill="#424242"/>
<path d="M342.582 55.1094C342.02 55.1094 341.52 55.013 341.082 54.8203C340.647 54.6276 340.303 54.3594 340.051 54.0156C339.798 53.6719 339.664 53.2747 339.648 52.8242H341.117C341.13 53.0404 341.202 53.2292 341.332 53.3906C341.462 53.5495 341.635 53.6732 341.852 53.7617C342.068 53.8503 342.31 53.8945 342.578 53.8945C342.865 53.8945 343.118 53.8451 343.34 53.7461C343.561 53.6445 343.734 53.5039 343.859 53.3242C343.984 53.1445 344.046 52.9375 344.043 52.7031C344.046 52.4609 343.983 52.2474 343.855 52.0625C343.728 51.8776 343.543 51.7331 343.301 51.6289C343.061 51.5247 342.772 51.4727 342.434 51.4727H341.727V50.3555H342.434C342.712 50.3555 342.956 50.3073 343.164 50.2109C343.375 50.1146 343.54 49.9792 343.66 49.8047C343.78 49.6276 343.839 49.4232 343.836 49.1914C343.839 48.9648 343.788 48.7682 343.684 48.6016C343.582 48.4323 343.438 48.3008 343.25 48.207C343.065 48.1133 342.848 48.0664 342.598 48.0664C342.353 48.0664 342.126 48.1107 341.918 48.1992C341.71 48.2878 341.542 48.4141 341.414 48.5781C341.286 48.7396 341.219 48.9323 341.211 49.1562H339.816C339.827 48.7083 339.956 48.3151 340.203 47.9766C340.453 47.6354 340.786 47.3698 341.203 47.1797C341.62 46.987 342.087 46.8906 342.605 46.8906C343.139 46.8906 343.603 46.9909 343.996 47.1914C344.392 47.3893 344.698 47.6562 344.914 47.9922C345.13 48.3281 345.238 48.6992 345.238 49.1055C345.241 49.556 345.108 49.9336 344.84 50.2383C344.574 50.543 344.225 50.7422 343.793 50.8359V50.8984C344.355 50.9766 344.786 51.1849 345.086 51.5234C345.388 51.8594 345.538 52.2773 345.535 52.7773C345.535 53.2253 345.408 53.6263 345.152 53.9805C344.9 54.332 344.551 54.6081 344.105 54.8086C343.663 55.0091 343.155 55.1094 342.582 55.1094ZM349.653 46.8906C350.036 46.8932 350.409 46.9609 350.771 47.0938C351.135 47.224 351.463 47.4375 351.755 47.7344C352.047 48.0286 352.278 48.4232 352.45 48.918C352.622 49.4128 352.708 50.0247 352.708 50.7539C352.711 51.4414 352.638 52.056 352.489 52.5977C352.343 53.1367 352.134 53.5924 351.86 53.9648C351.587 54.3372 351.257 54.6211 350.872 54.8164C350.487 55.0117 350.053 55.1094 349.571 55.1094C349.066 55.1094 348.618 55.0104 348.228 54.8125C347.84 54.6146 347.526 54.3437 347.286 54C347.047 53.6562 346.899 53.263 346.845 52.8203H348.271C348.343 53.138 348.492 53.3906 348.716 53.5781C348.942 53.763 349.228 53.8555 349.571 53.8555C350.126 53.8555 350.553 53.6146 350.853 53.1328C351.152 52.651 351.302 51.9818 351.302 51.125H351.247C351.119 51.3542 350.954 51.5521 350.751 51.7187C350.548 51.8828 350.317 52.0091 350.06 52.0977C349.804 52.1862 349.534 52.2305 349.247 52.2305C348.778 52.2305 348.356 52.1185 347.981 51.8945C347.609 51.6706 347.313 51.3633 347.095 50.9727C346.879 50.582 346.769 50.1354 346.767 49.6328C346.767 49.112 346.886 48.6445 347.126 48.2305C347.368 47.8138 347.705 47.4857 348.138 47.2461C348.57 47.0039 349.075 46.8854 349.653 46.8906ZM349.657 48.0625C349.376 48.0625 349.122 48.1315 348.896 48.2695C348.672 48.4049 348.494 48.5898 348.364 48.8242C348.237 49.056 348.173 49.3151 348.173 49.6016C348.175 49.8854 348.239 50.1432 348.364 50.375C348.492 50.6068 348.665 50.7904 348.884 50.9258C349.105 51.0612 349.358 51.1289 349.642 51.1289C349.853 51.1289 350.049 51.0885 350.231 51.0078C350.414 50.9271 350.573 50.8151 350.708 50.6719C350.846 50.526 350.953 50.3607 351.028 50.1758C351.106 49.9909 351.144 49.7956 351.142 49.5898C351.142 49.3164 351.076 49.0638 350.946 48.832C350.819 48.6003 350.643 48.4141 350.419 48.2734C350.198 48.1328 349.944 48.0625 349.657 48.0625ZM356.853 55.1094C356.272 55.1094 355.756 55.0117 355.306 54.8164C354.858 54.6211 354.506 54.3542 354.251 54.0156C353.998 53.6745 353.873 53.2878 353.876 52.8555C353.873 52.5195 353.946 52.2109 354.095 51.9297C354.243 51.6484 354.444 51.4141 354.696 51.2266C354.951 51.0365 355.235 50.9154 355.548 50.8633V50.8086C355.136 50.7174 354.803 50.5078 354.548 50.1797C354.295 49.849 354.17 49.4674 354.173 49.0352C354.17 48.6237 354.285 48.2565 354.517 47.9336C354.748 47.6107 355.066 47.3568 355.47 47.1719C355.873 46.9844 356.334 46.8906 356.853 46.8906C357.366 46.8906 357.823 46.9844 358.224 47.1719C358.627 47.3568 358.945 47.6107 359.177 47.9336C359.411 48.2565 359.528 48.6237 359.528 49.0352C359.528 49.4674 359.399 49.849 359.142 50.1797C358.886 50.5078 358.557 50.7174 358.153 50.8086V50.8633C358.466 50.9154 358.747 51.0365 358.997 51.2266C359.25 51.4141 359.45 51.6484 359.599 51.9297C359.75 52.2109 359.825 52.5195 359.825 52.8555C359.825 53.2878 359.698 53.6745 359.442 54.0156C359.187 54.3542 358.836 54.6211 358.388 54.8164C357.942 55.0117 357.431 55.1094 356.853 55.1094ZM356.853 53.9922C357.152 53.9922 357.412 53.9414 357.634 53.8398C357.855 53.7357 358.027 53.5898 358.149 53.4023C358.272 53.2148 358.334 52.9987 358.337 52.7539C358.334 52.4987 358.268 52.2734 358.138 52.0781C358.01 51.8802 357.834 51.7253 357.61 51.6133C357.389 51.5013 357.136 51.4453 356.853 51.4453C356.566 51.4453 356.311 51.5013 356.087 51.6133C355.863 51.7253 355.686 51.8802 355.556 52.0781C355.428 52.2734 355.366 52.4987 355.368 52.7539C355.366 52.9987 355.425 53.2148 355.548 53.4023C355.67 53.5872 355.842 53.7318 356.063 53.8359C356.287 53.9401 356.55 53.9922 356.853 53.9922ZM356.853 50.3477C357.097 50.3477 357.313 50.2982 357.501 50.1992C357.691 50.1003 357.841 49.9622 357.95 49.7852C358.06 49.6081 358.116 49.4036 358.118 49.1719C358.116 48.9427 358.061 48.7422 357.954 48.5703C357.847 48.3958 357.699 48.2617 357.509 48.168C357.319 48.0716 357.1 48.0234 356.853 48.0234C356.6 48.0234 356.377 48.0716 356.185 48.168C355.994 48.2617 355.846 48.3958 355.739 48.5703C355.635 48.7422 355.584 48.9427 355.587 49.1719C355.584 49.4036 355.636 49.6081 355.743 49.7852C355.853 49.9596 356.002 50.0977 356.192 50.1992C356.385 50.2982 356.605 50.3477 356.853 50.3477Z" fill="#424242"/>
<path d="M56 119C56 117.895 56.8954 117 58 117H82C83.1046 117 84 117.895 84 119V265H56V119Z" fill="#47922C"/>
<path d="M96 106C96 104.895 96.8954 104 98 104H122C123.105 104 124 104.895 124 106V265H96V106Z" fill="#47922C"/>
<path d="M136 99C136 97.8954 136.895 97 138 97H162C163.105 97 164 97.8954 164 99V265H136V99Z" fill="#47922C"/>
<path d="M176 92C176 90.8954 176.895 90 178 90H202C203.105 90 204 90.8954 204 92V265H176V92Z" fill="#47922C"/>
<path d="M216 88C216 86.8954 216.895 86 218 86H242C243.105 86 244 86.8954 244 88V265H216V88Z" fill="#47922C"/>
<path d="M256 78C256 76.8954 256.895 76 258 76H282C283.105 76 284 76.8954 284 78V265H256V78Z" fill="#47922C"/>
<path d="M296 71C296 69.8954 296.895 69 298 69H322C323.105 69 324 69.8954 324 71V265H296V71Z" fill="#47922C"/>
<path d="M336 62C336 60.8954 336.895 60 338 60H362C363.105 60 364 60.8954 364 62V265H336V62Z" fill="#47922C"/>
</svg>
