<svg width="56" height="56" viewBox="0 0 56 56" fill="none" xmlns="http://www.w3.org/2000/svg">
<g clip-path="url(#clip0_588_9473)">
<path d="M27.9998 4.66663C34.3395 4.66663 35.1305 4.68996 37.6178 4.80663C40.1028 4.92329 41.7945 5.31296 43.2832 5.89163C44.8232 6.48429 46.1205 7.28696 47.4178 8.58196C48.6043 9.74838 49.5224 11.1593 50.1082 12.7166C50.6845 14.203 51.0765 15.897 51.1932 18.382C51.3028 20.8693 51.3332 21.6603 51.3332 28C51.3332 34.3396 51.3098 35.1306 51.1932 37.618C51.0765 40.103 50.6845 41.7946 50.1082 43.2833C49.5241 44.8414 48.6058 46.2527 47.4178 47.418C46.2511 48.604 44.8402 49.522 43.2832 50.1083C41.7968 50.6846 40.1028 51.0766 37.6178 51.1933C35.1305 51.303 34.3395 51.3333 27.9998 51.3333C21.6602 51.3333 20.8692 51.31 18.3818 51.1933C15.8968 51.0766 14.2052 50.6846 12.7165 50.1083C11.1586 49.5237 9.7474 48.6055 8.58184 47.418C7.39512 46.2517 6.47701 44.8407 5.8915 43.2833C5.31284 41.797 4.92317 40.103 4.8065 37.618C4.69684 35.1306 4.6665 34.3396 4.6665 28C4.6665 21.6603 4.68984 20.8693 4.8065 18.382C4.92317 15.8946 5.31284 14.2053 5.8915 12.7166C6.47539 11.1584 7.39371 9.74704 8.58184 8.58196C9.74774 7.39483 11.1588 6.47666 12.7165 5.89163C14.2052 5.31296 15.8945 4.92329 18.3818 4.80663C20.8692 4.69696 21.6602 4.66663 27.9998 4.66663ZM27.9998 16.3333C24.9056 16.3333 21.9382 17.5625 19.7503 19.7504C17.5623 21.9383 16.3332 24.9058 16.3332 28C16.3332 31.0942 17.5623 34.0616 19.7503 36.2495C21.9382 38.4375 24.9056 39.6666 27.9998 39.6666C31.094 39.6666 34.0615 38.4375 36.2494 36.2495C38.4373 34.0616 39.6665 31.0942 39.6665 28C39.6665 24.9058 38.4373 21.9383 36.2494 19.7504C34.0615 17.5625 31.094 16.3333 27.9998 16.3333ZM43.1665 15.75C43.1665 14.9764 42.8592 14.2345 42.3122 13.6876C41.7653 13.1406 41.0234 12.8333 40.2498 12.8333C39.4763 12.8333 38.7344 13.1406 38.1874 13.6876C37.6405 14.2345 37.3332 14.9764 37.3332 15.75C37.3332 16.5235 37.6405 17.2654 38.1874 17.8124C38.7344 18.3593 39.4763 18.6666 40.2498 18.6666C41.0234 18.6666 41.7653 18.3593 42.3122 17.8124C42.8592 17.2654 43.1665 16.5235 43.1665 15.75ZM27.9998 21C29.8564 21 31.6368 21.7375 32.9496 23.0502C34.2623 24.363 34.9998 26.1434 34.9998 28C34.9998 29.8565 34.2623 31.637 32.9496 32.9497C31.6368 34.2625 29.8564 35 27.9998 35C26.1433 35 24.3628 34.2625 23.0501 32.9497C21.7373 31.637 20.9998 29.8565 20.9998 28C20.9998 26.1434 21.7373 24.363 23.0501 23.0502C24.3628 21.7375 26.1433 21 27.9998 21Z" fill="#1AA95B"/>
</g>
<defs>
<clipPath id="clip0_588_9473">
<rect width="56" height="56" fill="white"/>
</clipPath>
</defs>
</svg>
