<svg width="305" height="274" viewBox="0 0 305 274" fill="none" xmlns="http://www.w3.org/2000/svg">
<path d="M151.271 136.819C149.807 120.531 147.377 93.4905 145.913 77.2024C145.176 68.998 144.684 63.5216 144.684 63.5216C147.286 63.407 149.893 63.3496 152.501 63.3496C152.501 63.3496 152.501 85.1371 152.501 106.925C152.501 128.712 152.501 150.5 152.501 150.5C152.501 150.5 152.009 145.023 151.271 136.819Z" fill="#FFAE4C"/>
<path d="M152.501 43.3496C149.893 43.3496 147.286 43.407 144.684 43.5216V63.5216C147.286 63.407 149.893 63.3496 152.501 63.3496V43.3496Z" fill="url(#paint0_linear_588_9335)"/>
<path d="M144.684 43.5215L145.913 57.2023V77.2023L144.684 63.5215V43.5215Z" fill="url(#paint1_linear_588_9335)"/>
<path d="M145.914 57.2031L151.272 116.82V136.82L145.914 77.2031V57.2031Z" fill="url(#paint2_linear_588_9335)"/>
<path d="M151.27 116.818L152.499 130.499V150.499L151.27 136.818V116.818Z" fill="url(#paint3_linear_588_9335)"/>
<path d="M144.683 43.5216C147.285 43.407 149.892 43.3496 152.5 43.3496V130.5L144.683 43.5216Z" fill="#3CC3DF"/>
<path d="M136.895 64.0367C139.482 63.8079 142.079 63.6361 144.681 63.5215C144.681 63.5215 145.173 68.9979 145.911 77.2023C147.375 93.4904 149.805 120.531 151.269 136.819C152.006 145.023 152.499 150.5 152.499 150.5L136.895 64.0367Z" fill="#3CC3DF"/>
<path d="M144.681 43.5215C142.079 43.6361 139.482 43.8079 136.895 44.0367V64.0367C139.482 63.8079 142.079 63.6361 144.681 63.5215V43.5215Z" fill="url(#paint4_linear_588_9335)"/>
<path d="M145.913 57.2023L144.684 43.5215V63.5215L145.913 77.2023V57.2023Z" fill="url(#paint5_linear_588_9335)"/>
<path d="M151.272 116.82L145.914 57.2031V77.2031L151.272 136.82V116.82Z" fill="url(#paint6_linear_588_9335)"/>
<path d="M136.895 44.0371L152.499 130.5V150.5L136.895 64.0371V44.0371Z" fill="url(#paint7_linear_588_9335)"/>
<path d="M152.499 130.499L151.27 116.818V136.818L152.499 150.499V130.499Z" fill="url(#paint8_linear_588_9335)"/>
<path d="M136.896 44.0368C139.483 43.808 142.08 43.6362 144.683 43.5216L152.5 130.5L136.896 44.0368Z" fill="#3CC3DF"/>
<path d="M73.1406 83.3497C91.3442 72.8081 113.457 66.1098 136.896 64.0371L152.5 150.5L73.1406 83.3497Z" fill="#FF928A"/>
<path d="M136.896 44.0371C113.457 46.1098 91.3442 52.8081 73.1406 63.3497V83.3497C91.3442 72.8081 113.457 66.1098 136.896 64.0371V44.0371Z" fill="url(#paint9_linear_588_9335)"/>
<path d="M152.499 130.5L136.895 44.0371V64.0371L152.499 150.5V130.5Z" fill="url(#paint10_linear_588_9335)"/>
<path d="M73.1406 63.3496L152.5 130.5V150.5L73.1406 83.3496V63.3496Z" fill="url(#paint11_linear_588_9335)"/>
<path d="M73.1407 63.3494C91.3443 52.8078 113.457 46.1095 136.896 44.0368L152.5 130.5L73.1407 63.3494Z" fill="#FF928A"/>
<path d="M152.5 106.925C152.5 85.1371 152.5 63.3496 152.5 63.3496C181.808 63.3496 210.176 70.587 232.611 83.7877C255.045 96.9885 270.108 115.306 275.146 135.516C276.386 140.488 276.999 145.495 277.001 150.485C277.004 165.777 271.256 180.896 260.157 194.272C245.437 212.012 222.248 225.548 194.673 232.497C167.098 239.447 136.905 239.364 109.409 232.263C81.9125 225.162 58.8763 211.499 44.3556 193.679C33.5773 180.451 28.0037 165.563 28 150.514C27.9987 145.288 28.669 140.044 30.026 134.842C35.2915 114.661 50.5591 96.4263 73.141 83.3494L152.5 150.5C152.5 150.5 152.5 128.712 152.5 106.925Z" fill="#8979FF"/>
<path d="M232.61 63.7877C210.176 50.587 181.808 43.3496 152.5 43.3496V63.3496C181.808 63.3496 210.176 70.587 232.61 83.7877V63.7877Z" fill="url(#paint12_linear_588_9335)"/>
<path d="M73.1423 63.3496C50.5604 76.4266 35.2928 94.6609 30.0273 114.842V134.842C35.2928 114.661 50.5604 96.4266 73.1423 83.3496V63.3496Z" fill="url(#paint13_linear_588_9335)"/>
<path d="M275.145 115.515C270.106 95.3055 255.044 76.9878 232.609 63.7871V83.7871C255.044 96.9878 270.106 115.306 275.145 135.515V115.515Z" fill="url(#paint14_linear_588_9335)"/>
<path d="M152.5 130.5L73.1406 63.3496V83.3496L152.5 150.5V130.5Z" fill="url(#paint15_linear_588_9335)"/>
<path d="M30.026 114.842C28.669 120.043 27.9987 125.288 28 130.513V150.484C28.0013 145.268 28.6715 140.033 30.026 134.842V114.842Z" fill="url(#paint16_linear_588_9335)"/>
<path d="M276.999 130.484C276.998 125.495 276.384 120.487 275.145 115.516V135.516C276.384 140.487 276.998 145.495 276.999 150.484V130.484Z" fill="url(#paint17_linear_588_9335)"/>
<path d="M28 130.514C28.0037 145.563 33.5773 160.451 44.3556 173.679V193.679C33.5773 180.451 28.0037 165.563 28 150.514V130.514Z" fill="url(#paint18_linear_588_9335)"/>
<path d="M260.156 174.272C271.248 160.904 276.996 145.796 277 130.513V150.484C277.003 165.777 271.255 180.896 260.156 194.272V174.272Z" fill="url(#paint19_linear_588_9335)"/>
<path d="M44.3555 173.68C58.8762 191.5 81.9124 205.163 109.409 212.264V232.264C81.9124 225.163 58.8762 211.5 44.3555 193.68V173.68Z" fill="url(#paint20_linear_588_9335)"/>
<path d="M194.672 212.497C222.247 205.547 245.436 192.011 260.156 174.271V194.271C245.436 212.011 222.247 225.547 194.672 232.497V212.497Z" fill="url(#paint21_linear_588_9335)"/>
<path d="M109.41 212.264C136.906 219.364 167.1 219.447 194.675 212.498V232.498C167.1 239.447 136.906 239.364 109.41 232.264V212.264Z" fill="url(#paint22_linear_588_9335)"/>
<path d="M152.5 43.3496C181.808 43.3496 210.176 50.587 232.61 63.7877C255.045 76.9885 270.107 95.3061 275.146 115.516C280.185 135.726 274.877 156.532 260.157 174.272C245.437 192.012 222.248 205.548 194.673 212.497C167.098 219.447 136.905 219.364 109.408 212.263C81.9123 205.162 58.8761 191.499 44.3554 173.679C29.8347 155.859 24.7604 135.024 30.0258 114.842C35.2912 94.6606 50.5588 76.4263 73.1407 63.3494L152.5 130.5L152.5 43.3496Z" fill="#53B606"/>
<path d="M136.463 269.199C135.407 269.199 134.47 269.021 133.651 268.666C132.836 268.311 132.197 267.826 131.733 267.21C131.274 266.59 131.046 265.887 131.051 265.101C131.046 264.49 131.179 263.929 131.449 263.418C131.719 262.906 132.083 262.48 132.543 262.139C133.007 261.794 133.523 261.573 134.091 261.479V261.379C133.343 261.214 132.737 260.832 132.273 260.236C131.813 259.634 131.586 258.941 131.591 258.155C131.586 257.407 131.795 256.739 132.216 256.152C132.637 255.565 133.215 255.103 133.949 254.767C134.683 254.426 135.521 254.256 136.463 254.256C137.396 254.256 138.227 254.426 138.956 254.767C139.69 255.103 140.268 255.565 140.689 256.152C141.115 256.739 141.328 257.407 141.328 258.155C141.328 258.941 141.094 259.634 140.625 260.236C140.161 260.832 139.562 261.214 138.828 261.379V261.479C139.396 261.573 139.908 261.794 140.362 262.139C140.821 262.48 141.186 262.906 141.456 263.418C141.731 263.929 141.868 264.49 141.868 265.101C141.868 265.887 141.636 266.59 141.172 267.21C140.708 267.826 140.069 268.311 139.254 268.666C138.445 269.021 137.514 269.199 136.463 269.199ZM136.463 267.168C137.008 267.168 137.481 267.075 137.884 266.891C138.286 266.701 138.598 266.436 138.821 266.095C139.044 265.754 139.157 265.361 139.162 264.916C139.157 264.452 139.036 264.043 138.8 263.688C138.568 263.328 138.248 263.046 137.841 262.842C137.438 262.639 136.979 262.537 136.463 262.537C135.942 262.537 135.478 262.639 135.071 262.842C134.664 263.046 134.342 263.328 134.105 263.688C133.873 264.043 133.759 264.452 133.764 264.916C133.759 265.361 133.868 265.754 134.091 266.095C134.313 266.431 134.626 266.694 135.028 266.884C135.436 267.073 135.914 267.168 136.463 267.168ZM136.463 260.541C136.908 260.541 137.301 260.451 137.642 260.271C137.988 260.091 138.26 259.84 138.459 259.518C138.658 259.196 138.759 258.825 138.764 258.403C138.759 257.987 138.66 257.622 138.466 257.31C138.272 256.992 138.002 256.749 137.656 256.578C137.311 256.403 136.913 256.315 136.463 256.315C136.004 256.315 135.599 256.403 135.249 256.578C134.903 256.749 134.633 256.992 134.439 257.31C134.25 257.622 134.157 257.987 134.162 258.403C134.157 258.825 134.252 259.196 134.446 259.518C134.645 259.836 134.917 260.087 135.263 260.271C135.613 260.451 136.013 260.541 136.463 260.541ZM149.252 254.256C149.949 254.26 150.626 254.384 151.284 254.625C151.947 254.862 152.543 255.25 153.074 255.79C153.604 256.325 154.025 257.042 154.338 257.942C154.65 258.841 154.806 259.954 154.806 261.28C154.811 262.53 154.679 263.647 154.409 264.632C154.144 265.612 153.762 266.441 153.265 267.118C152.768 267.795 152.169 268.311 151.468 268.666C150.768 269.021 149.979 269.199 149.103 269.199C148.185 269.199 147.37 269.019 146.66 268.659C145.955 268.299 145.384 267.807 144.949 267.182C144.513 266.557 144.245 265.842 144.146 265.037H146.738C146.871 265.615 147.141 266.074 147.548 266.415C147.96 266.751 148.478 266.919 149.103 266.919C150.112 266.919 150.888 266.481 151.433 265.605C151.977 264.729 152.25 263.512 152.25 261.955H152.15C151.918 262.371 151.618 262.731 151.248 263.034C150.879 263.332 150.46 263.562 149.991 263.723C149.527 263.884 149.035 263.964 148.514 263.964C147.662 263.964 146.895 263.761 146.213 263.354C145.536 262.946 144.998 262.388 144.6 261.678C144.208 260.967 144.009 260.155 144.004 259.241C144.004 258.295 144.222 257.445 144.657 256.692C145.098 255.934 145.711 255.338 146.497 254.902C147.283 254.462 148.201 254.246 149.252 254.256ZM149.26 256.386C148.748 256.386 148.287 256.512 147.875 256.763C147.467 257.009 147.145 257.345 146.909 257.771C146.677 258.193 146.561 258.664 146.561 259.185C146.565 259.701 146.681 260.17 146.909 260.591C147.141 261.012 147.456 261.346 147.853 261.592C148.256 261.839 148.715 261.962 149.231 261.962C149.615 261.962 149.972 261.888 150.304 261.741C150.635 261.595 150.924 261.391 151.17 261.131C151.421 260.866 151.615 260.565 151.752 260.229C151.895 259.893 151.963 259.537 151.958 259.163C151.958 258.666 151.84 258.207 151.603 257.786C151.371 257.364 151.052 257.026 150.645 256.77C150.242 256.514 149.78 256.386 149.26 256.386ZM164.949 266.273V265.506C164.949 264.942 165.067 264.424 165.304 263.95C165.545 263.477 165.895 263.096 166.355 262.807C166.814 262.518 167.37 262.374 168.024 262.374C168.696 262.374 169.26 262.518 169.714 262.807C170.169 263.091 170.512 263.47 170.744 263.943C170.981 264.417 171.099 264.937 171.099 265.506V266.273C171.099 266.836 170.981 267.355 170.744 267.828C170.507 268.302 170.159 268.683 169.7 268.972C169.245 269.26 168.687 269.405 168.024 269.405C167.361 269.405 166.8 269.26 166.341 268.972C165.881 268.683 165.533 268.302 165.297 267.828C165.065 267.355 164.949 266.836 164.949 266.273ZM166.802 265.506V266.273C166.802 266.647 166.892 266.99 167.072 267.303C167.252 267.615 167.569 267.771 168.024 267.771C168.483 267.771 168.798 267.617 168.968 267.31C169.144 266.997 169.231 266.652 169.231 266.273V265.506C169.231 265.127 169.148 264.781 168.983 264.469C168.817 264.152 168.497 263.993 168.024 263.993C167.579 263.993 167.264 264.152 167.079 264.469C166.895 264.781 166.802 265.127 166.802 265.506ZM157.555 257.949V257.182C157.555 256.614 157.676 256.093 157.917 255.619C158.159 255.146 158.509 254.767 158.968 254.483C159.428 254.194 159.984 254.05 160.637 254.05C161.305 254.05 161.866 254.194 162.321 254.483C162.78 254.767 163.126 255.146 163.358 255.619C163.59 256.093 163.706 256.614 163.706 257.182V257.949C163.706 258.517 163.587 259.038 163.35 259.511C163.118 259.98 162.773 260.357 162.314 260.641C161.854 260.925 161.296 261.067 160.637 261.067C159.97 261.067 159.406 260.925 158.947 260.641C158.493 260.357 158.147 259.978 157.91 259.504C157.673 259.031 157.555 258.512 157.555 257.949ZM159.423 257.182V257.949C159.423 258.328 159.511 258.673 159.686 258.986C159.866 259.294 160.183 259.447 160.637 259.447C161.092 259.447 161.404 259.294 161.575 258.986C161.75 258.673 161.838 258.328 161.838 257.949V257.182C161.838 256.803 161.755 256.457 161.589 256.145C161.423 255.828 161.106 255.669 160.637 255.669C160.188 255.669 159.873 255.828 159.693 256.145C159.513 256.462 159.423 256.808 159.423 257.182ZM158.365 269L168.365 254.455H170.14L160.14 269H158.365Z" fill="#53B606"/>
<path d="M76.2088 23.4545V38H73.5739V26.0185H73.4886L70.0866 28.1918V25.777L73.7017 23.4545H76.2088ZM85.2784 38.277C84.1089 38.277 83.1051 37.9811 82.267 37.3892C81.4337 36.7926 80.7921 35.9332 80.3423 34.8111C79.8973 33.6842 79.6747 32.3277 79.6747 30.7415C79.6795 29.1553 79.9044 27.8059 80.3494 26.6932C80.7992 25.5758 81.4408 24.7235 82.2741 24.1364C83.1122 23.5492 84.1136 23.2557 85.2784 23.2557C86.4432 23.2557 87.4446 23.5492 88.2827 24.1364C89.1207 24.7235 89.7623 25.5758 90.2074 26.6932C90.6572 27.8106 90.8821 29.16 90.8821 30.7415C90.8821 32.3324 90.6572 33.6913 90.2074 34.8182C89.7623 35.9403 89.1207 36.7973 88.2827 37.3892C87.4493 37.9811 86.4479 38.277 85.2784 38.277ZM85.2784 36.054C86.1875 36.054 86.9048 35.6065 87.4304 34.7116C87.9607 33.812 88.2259 32.4886 88.2259 30.7415C88.2259 29.5862 88.1051 28.6155 87.8636 27.8295C87.6222 27.0436 87.2813 26.4517 86.8409 26.054C86.4006 25.6515 85.8797 25.4503 85.2784 25.4503C84.3741 25.4503 83.6591 25.9001 83.1335 26.7997C82.608 27.6946 82.3428 29.0085 82.3381 30.7415C82.3333 31.9015 82.4493 32.8769 82.6861 33.6676C82.9276 34.4583 83.2685 35.0549 83.7088 35.4574C84.1491 35.8551 84.6723 36.054 85.2784 36.054ZM101.019 35.2727V34.5057C101.019 33.9422 101.137 33.4238 101.374 32.9503C101.615 32.4768 101.966 32.0956 102.425 31.8068C102.884 31.518 103.441 31.3736 104.094 31.3736C104.766 31.3736 105.33 31.518 105.784 31.8068C106.239 32.0909 106.582 32.4697 106.814 32.9432C107.051 33.4167 107.169 33.9375 107.169 34.5057V35.2727C107.169 35.8362 107.051 36.3546 106.814 36.8281C106.578 37.3016 106.23 37.6828 105.77 37.9716C105.316 38.2604 104.757 38.4048 104.094 38.4048C103.431 38.4048 102.87 38.2604 102.411 37.9716C101.952 37.6828 101.604 37.3016 101.367 36.8281C101.135 36.3546 101.019 35.8362 101.019 35.2727ZM102.873 34.5057V35.2727C102.873 35.6468 102.962 35.9901 103.142 36.3026C103.322 36.6151 103.64 36.7713 104.094 36.7713C104.553 36.7713 104.868 36.6174 105.039 36.3097C105.214 35.9972 105.301 35.6515 105.301 35.2727V34.5057C105.301 34.1269 105.219 33.7812 105.053 33.4688C104.887 33.1515 104.568 32.9929 104.094 32.9929C103.649 32.9929 103.334 33.1515 103.15 33.4688C102.965 33.7812 102.873 34.1269 102.873 34.5057ZM93.6254 26.9489V26.1818C93.6254 25.6136 93.7461 25.0928 93.9876 24.6193C94.229 24.1458 94.5794 23.767 95.0387 23.483C95.498 23.1941 96.0543 23.0497 96.7077 23.0497C97.3754 23.0497 97.9364 23.1941 98.391 23.483C98.8503 23.767 99.1959 24.1458 99.4279 24.6193C99.6599 25.0928 99.7759 25.6136 99.7759 26.1818V26.9489C99.7759 27.517 99.6576 28.0379 99.4208 28.5114C99.1888 28.9801 98.8432 29.3565 98.3839 29.6406C97.9246 29.9247 97.3659 30.0668 96.7077 30.0668C96.0401 30.0668 95.4767 29.9247 95.0174 29.6406C94.5629 29.3565 94.2172 28.9777 93.9805 28.5043C93.7437 28.0308 93.6254 27.5123 93.6254 26.9489ZM95.4933 26.1818V26.9489C95.4933 27.3277 95.5808 27.6733 95.756 27.9858C95.936 28.2936 96.2532 28.4474 96.7077 28.4474C97.1623 28.4474 97.4748 28.2936 97.6452 27.9858C97.8204 27.6733 97.908 27.3277 97.908 26.9489V26.1818C97.908 25.803 97.8252 25.4574 97.6594 25.1449C97.4937 24.8277 97.1765 24.669 96.7077 24.669C96.2579 24.669 95.9431 24.8277 95.7631 25.1449C95.5832 25.4621 95.4933 25.8078 95.4933 26.1818ZM94.435 38L104.435 23.4545H106.211L96.2106 38H94.435Z" fill="#F05549"/>
<path d="M140.209 11.4545V26H137.574V14.0185H137.489L134.087 16.1918V13.777L137.702 11.4545H140.209ZM151.679 23.2727V22.5057C151.679 21.9422 151.797 21.4238 152.034 20.9503C152.276 20.4768 152.626 20.0956 153.085 19.8068C153.545 19.518 154.101 19.3736 154.754 19.3736C155.427 19.3736 155.99 19.518 156.445 19.8068C156.899 20.0909 157.242 20.4697 157.474 20.9432C157.711 21.4167 157.83 21.9375 157.83 22.5057V23.2727C157.83 23.8362 157.711 24.3546 157.474 24.8281C157.238 25.3016 156.89 25.6828 156.43 25.9716C155.976 26.2604 155.417 26.4048 154.754 26.4048C154.091 26.4048 153.53 26.2604 153.071 25.9716C152.612 25.6828 152.264 25.3016 152.027 24.8281C151.795 24.3546 151.679 23.8362 151.679 23.2727ZM153.533 22.5057V23.2727C153.533 23.6468 153.623 23.9901 153.803 24.3026C153.982 24.6151 154.3 24.7713 154.754 24.7713C155.214 24.7713 155.528 24.6174 155.699 24.3097C155.874 23.9972 155.962 23.6515 155.962 23.2727V22.5057C155.962 22.1269 155.879 21.7812 155.713 21.4688C155.547 21.1515 155.228 20.9929 154.754 20.9929C154.309 20.9929 153.994 21.1515 153.81 21.4688C153.625 21.7812 153.533 22.1269 153.533 22.5057ZM144.286 14.9489V14.1818C144.286 13.6136 144.406 13.0928 144.648 12.6193C144.889 12.1458 145.24 11.767 145.699 11.483C146.158 11.1941 146.714 11.0497 147.368 11.0497C148.036 11.0497 148.597 11.1941 149.051 11.483C149.51 11.767 149.856 12.1458 150.088 12.6193C150.32 13.0928 150.436 13.6136 150.436 14.1818V14.9489C150.436 15.517 150.318 16.0379 150.081 16.5114C149.849 16.9801 149.503 17.3565 149.044 17.6406C148.585 17.9247 148.026 18.0668 147.368 18.0668C146.7 18.0668 146.137 17.9247 145.678 17.6406C145.223 17.3565 144.877 16.9777 144.641 16.5043C144.404 16.0308 144.286 15.5123 144.286 14.9489ZM146.153 14.1818V14.9489C146.153 15.3277 146.241 15.6733 146.416 15.9858C146.596 16.2936 146.913 16.4474 147.368 16.4474C147.822 16.4474 148.135 16.2936 148.305 15.9858C148.481 15.6733 148.568 15.3277 148.568 14.9489V14.1818C148.568 13.803 148.485 13.4574 148.32 13.1449C148.154 12.8277 147.837 12.669 147.368 12.669C146.918 12.669 146.603 12.8277 146.423 13.1449C146.243 13.4621 146.153 13.8078 146.153 14.1818ZM145.095 26L155.095 11.4545H156.871L146.871 26H145.095Z" fill="#3CC3DF"/>
<circle cx="120" cy="261" r="4" fill="#53B606"/>
<path d="M118.5 260.5L109.5 255L128.5 199" stroke="#53B606"/>
<path d="M91.5931 43.6119C90.5334 42.0061 88.3359 41.568 86.6789 42.6615C85.0219 43.755 84.5606 45.9478 85.6204 47.5535C86.6801 49.1593 88.8776 49.5974 90.5345 48.5039C92.1915 47.4105 92.6528 45.2177 91.5931 43.6119Z" fill="#FC7066" stroke="#FC7066"/>
<path d="M89.0015 46.4966L99.5015 63.9966" stroke="#FC7066"/>
<path d="M148.485 32.5594C148.29 30.6453 146.547 29.2383 144.571 29.4388C142.596 29.6394 141.171 31.3684 141.365 33.2825C141.56 35.1965 143.304 36.6036 145.279 36.403C147.254 36.2024 148.679 34.4735 148.485 32.5594Z" fill="#24AFCB" stroke="#24AFCB"/>
<path d="M144.851 33.9134L146.04 54.2871" stroke="#24AFCB"/>
<defs>
<linearGradient id="paint0_linear_588_9335" x1="152.501" y1="53.4356" x2="144.684" y2="53.4356" gradientUnits="userSpaceOnUse">
<stop stop-color="#FF9008"/>
<stop offset="0.5" stop-color="#FF910B"/>
<stop offset="1" stop-color="#FF920E"/>
</linearGradient>
<linearGradient id="paint1_linear_588_9335" x1="145.913" y1="60.3619" x2="144.684" y2="60.3619" gradientUnits="userSpaceOnUse">
<stop stop-color="#FA8700"/>
<stop offset="1" stop-color="#FA8700"/>
</linearGradient>
<linearGradient id="paint2_linear_588_9335" x1="151.272" y1="97.0113" x2="145.914" y2="97.0113" gradientUnits="userSpaceOnUse">
<stop stop-color="#FA8700"/>
<stop offset="0.5" stop-color="#FA8700"/>
<stop offset="1" stop-color="#FA8700"/>
</linearGradient>
<linearGradient id="paint3_linear_588_9335" x1="152.499" y1="133.659" x2="151.27" y2="133.659" gradientUnits="userSpaceOnUse">
<stop stop-color="#FA8700"/>
<stop offset="1" stop-color="#FA8700"/>
</linearGradient>
<linearGradient id="paint4_linear_588_9335" x1="144.681" y1="53.7791" x2="136.895" y2="53.7791" gradientUnits="userSpaceOnUse">
<stop stop-color="#1E9DB7"/>
<stop offset="0.5" stop-color="#1E9FBA"/>
<stop offset="1" stop-color="#1FA1BD"/>
</linearGradient>
<linearGradient id="paint5_linear_588_9335" x1="145.913" y1="60.3619" x2="144.684" y2="60.3619" gradientUnits="userSpaceOnUse">
<stop stop-color="#1B8EA6"/>
<stop offset="1" stop-color="#1D99B2"/>
</linearGradient>
<linearGradient id="paint6_linear_588_9335" x1="151.272" y1="97.0113" x2="145.914" y2="97.0113" gradientUnits="userSpaceOnUse">
<stop stop-color="#1B8EA6"/>
<stop offset="0.5" stop-color="#1B8EA6"/>
<stop offset="1" stop-color="#1B8EA6"/>
</linearGradient>
<linearGradient id="paint7_linear_588_9335" x1="152.499" y1="97.2685" x2="136.895" y2="97.2685" gradientUnits="userSpaceOnUse">
<stop stop-color="#19839B"/>
<stop offset="1" stop-color="#19839B"/>
</linearGradient>
<linearGradient id="paint8_linear_588_9335" x1="152.499" y1="133.659" x2="151.27" y2="133.659" gradientUnits="userSpaceOnUse">
<stop stop-color="#1B8EA6"/>
<stop offset="1" stop-color="#1B8EA6"/>
</linearGradient>
<linearGradient id="paint9_linear_588_9335" x1="136.896" y1="63.6934" x2="73.1406" y2="63.6934" gradientUnits="userSpaceOnUse">
<stop stop-color="#FF6258"/>
<stop offset="0.5" stop-color="#FF7B76"/>
<stop offset="1" stop-color="#FF9998"/>
</linearGradient>
<linearGradient id="paint10_linear_588_9335" x1="152.499" y1="97.2685" x2="136.895" y2="97.2685" gradientUnits="userSpaceOnUse">
<stop stop-color="#FF3B31"/>
<stop offset="1" stop-color="#FF3B31"/>
</linearGradient>
<linearGradient id="paint11_linear_588_9335" x1="152.5" y1="106.925" x2="73.1406" y2="106.925" gradientUnits="userSpaceOnUse">
<stop stop-color="#E30000"/>
<stop offset="1" stop-color="#E30000"/>
</linearGradient>
<linearGradient id="paint12_linear_588_9335" x1="232.61" y1="63.5687" x2="152.5" y2="63.5687" gradientUnits="userSpaceOnUse">
<stop stop-color="#2700EB"/>
<stop offset="0.5" stop-color="#3616FF"/>
<stop offset="1" stop-color="#513AFF"/>
</linearGradient>
<linearGradient id="paint13_linear_588_9335" x1="73.1423" y1="99.096" x2="30.0273" y2="99.096" gradientUnits="userSpaceOnUse">
<stop stop-color="#9B87FF"/>
<stop offset="0.5" stop-color="#B1A0FF"/>
<stop offset="1" stop-color="#765FFF"/>
</linearGradient>
<linearGradient id="paint14_linear_588_9335" x1="275.145" y1="99.6512" x2="232.609" y2="99.6512" gradientUnits="userSpaceOnUse">
<stop stop-color="#3716FF"/>
<stop offset="0.5" stop-color="#2700D5"/>
<stop offset="1" stop-color="#2700EB"/>
</linearGradient>
<linearGradient id="paint15_linear_588_9335" x1="152.5" y1="106.925" x2="73.1406" y2="106.925" gradientUnits="userSpaceOnUse">
<stop stop-color="#2700D3"/>
<stop offset="1" stop-color="#2700D3"/>
</linearGradient>
<linearGradient id="paint16_linear_588_9335" x1="30.026" y1="132.678" x2="28" y2="132.678" gradientUnits="userSpaceOnUse">
<stop stop-color="#765FFF"/>
<stop offset="0.5" stop-color="#644DFF"/>
<stop offset="1" stop-color="#513AFF"/>
</linearGradient>
<linearGradient id="paint17_linear_588_9335" x1="276.999" y1="133" x2="275.145" y2="133" gradientUnits="userSpaceOnUse">
<stop stop-color="#513AFF"/>
<stop offset="0.5" stop-color="#4428FF"/>
<stop offset="1" stop-color="#3716FF"/>
</linearGradient>
<linearGradient id="paint18_linear_588_9335" x1="44.3556" y1="162.096" x2="28" y2="162.096" gradientUnits="userSpaceOnUse">
<stop stop-color="#6DBF2B"/>
<stop offset="0.5" stop-color="#8ADA4A"/>
<stop offset="1" stop-color="#A0E966"/>
</linearGradient>
<linearGradient id="paint19_linear_588_9335" x1="277" y1="162.378" x2="260.156" y2="162.378" gradientUnits="userSpaceOnUse">
<stop stop-color="#AEF377"/>
<stop offset="0.5" stop-color="#85D544"/>
<stop offset="1" stop-color="#90DD52"/>
</linearGradient>
<linearGradient id="paint20_linear_588_9335" x1="109.409" y1="202.972" x2="44.3555" y2="202.972" gradientUnits="userSpaceOnUse">
<stop stop-color="#6DBF2B"/>
<stop offset="0.5" stop-color="#6DBF2B"/>
<stop offset="1" stop-color="#6FBD30"/>
</linearGradient>
<linearGradient id="paint21_linear_588_9335" x1="260.156" y1="203.384" x2="194.672" y2="203.384" gradientUnits="userSpaceOnUse">
<stop stop-color="#90DE52"/>
<stop offset="0.5" stop-color="#78CB36"/>
<stop offset="1" stop-color="#77CA35"/>
</linearGradient>
<linearGradient id="paint22_linear_588_9335" x1="194.675" y1="224.957" x2="109.41" y2="224.957" gradientUnits="userSpaceOnUse">
<stop stop-color="#78CC36"/>
<stop offset="0.5" stop-color="#68BC27"/>
<stop offset="1" stop-color="#6DC02B"/>
</linearGradient>
</defs>
</svg>
