<svg width="40" height="40" viewBox="0 0 40 40" fill="none" xmlns="http://www.w3.org/2000/svg">
<path d="M10.2781 5.45028C12.913 3.68968 15.9765 2.6776 19.1417 2.52207C22.3069 2.36654 25.4549 3.07339 28.2497 4.56719C31.0445 6.06098 33.3813 8.28564 35.0105 11.0037C36.6398 13.7218 37.5004 16.8313 37.5006 20.0003V20.0828C35.2931 19.579 32.6556 19.2253 30.0031 19.429C28.3356 19.5578 26.6243 19.9115 25.0031 20.6103C24.9609 19.4057 24.4851 18.2568 23.6631 17.3753C22.8256 16.1878 21.5631 14.3878 23.2881 12.8253C25.0933 11.21 26.674 9.36025 27.9881 7.32528C25.6009 5.80638 22.83 4.99984 20.0006 5.00028H19.5381L19.6006 5.22528L19.6743 5.35903C20.7168 7.25903 21.8468 9.31653 21.1631 12.1628C20.6181 14.4415 18.4893 15.1628 16.9068 15.6978L16.8631 15.7128C16.3204 15.8557 15.8022 16.079 15.3256 16.3753C14.7006 17.2128 14.8756 18.0503 15.2006 19.3003C15.4569 19.9227 15.5719 20.5942 15.5373 21.2665C15.5027 21.9387 15.3194 22.5949 15.0006 23.1878C14.7185 23.5976 14.3468 23.9379 13.9136 24.1826C13.4804 24.4274 12.9972 24.5702 12.5006 24.6003C12.078 24.5968 11.6615 24.7004 11.2899 24.9015C10.9183 25.1026 10.6037 25.3946 10.3756 25.7503C9.37557 27.0878 9.68807 29.6378 9.88807 31.0503C12.3071 33.2789 15.3955 34.6444 18.6718 34.934L18.7231 34.9378C18.4519 35.7382 18.2626 36.5641 18.1581 37.4028C17.6331 37.3478 17.1093 37.2682 16.5868 37.164C13.192 36.4889 10.0736 34.8223 7.62601 32.3748C5.17842 29.9274 3.51158 26.8091 2.83629 23.4143C2.161 20.0195 2.50758 16.5007 3.83222 13.3029C5.15685 10.1051 7.40003 7.37317 10.2781 5.45028ZM22.9718 34.1303C23.9381 35.1428 25.6968 36.2503 28.7506 36.2503C34.1181 36.2503 35.7981 29.3378 36.5618 26.1978C36.6868 25.6803 36.7868 25.2653 36.8756 25.0003C37.0656 24.4328 37.5543 24.0128 38.1031 23.6953C38.9656 23.2003 38.9856 22.3953 38.0231 22.1428C33.4868 20.954 26.7356 20.2903 22.5006 24.524C20.7456 26.279 20.7731 28.579 21.1343 30.2578C21.2068 30.1561 21.281 30.054 21.3568 29.9515C23.3243 27.289 26.2056 24.814 30.0068 23.4915C30.2394 23.418 30.4915 23.4381 30.7095 23.5475C30.9276 23.6568 31.0944 23.8469 31.1746 24.0772C31.2548 24.3076 31.2421 24.5601 31.1391 24.7813C31.0361 25.0024 30.851 25.1747 30.6231 25.2615C27.2356 26.4403 24.6481 28.6528 22.8643 31.0665C21.0843 33.4765 20.1518 36.0253 20.0006 37.844C20.0095 38.0829 20.1093 38.3093 20.2796 38.477C20.4499 38.6448 20.6778 38.7411 20.9168 38.7464C21.1557 38.7516 21.3877 38.6654 21.5652 38.5054C21.7427 38.3453 21.8524 38.1235 21.8718 37.8853C21.9593 36.7515 22.3218 35.4478 22.9718 34.1328" fill="#53B606"/>
</svg>
