<svg width="30" height="30" viewBox="0 0 30 30" fill="none" xmlns="http://www.w3.org/2000/svg">
<path d="M11.639 8.38771C11.5231 8.50335 11.4312 8.64071 11.3685 8.79193C11.3057 8.94315 11.2734 9.10525 11.2734 9.26896C11.2734 9.43267 11.3057 9.59477 11.3685 9.74599C11.4312 9.89721 11.5231 10.0346 11.639 10.1502L16.489 15.0002L11.639 19.8502C11.4053 20.0839 11.274 20.4009 11.274 20.7315C11.274 21.062 11.4053 21.379 11.639 21.6127C11.8727 21.8464 12.1897 21.9777 12.5202 21.9777C12.8508 21.9777 13.1678 21.8464 13.4015 21.6127L19.139 15.8752C19.2549 15.7596 19.3468 15.6222 19.4095 15.471C19.4723 15.3198 19.5045 15.1577 19.5045 14.994C19.5045 14.8302 19.4723 14.6681 19.4095 14.5169C19.3468 14.3657 19.2549 14.2284 19.139 14.1127L13.4015 8.37521C12.9265 7.90021 12.1265 7.90021 11.639 8.38771Z" fill="black"/>
</svg>
